<?xml version="1.0" encoding="utf-8" standalone="no"?>
<!DOCTYPE svg PUBLIC "-//W3C//DTD SVG 1.1//EN"
  "http://www.w3.org/Graphics/SVG/1.1/DTD/svg11.dtd">
<svg xmlns:xlink="http://www.w3.org/1999/xlink" width="1008pt" height="432pt" viewBox="0 0 1008 432" xmlns="http://www.w3.org/2000/svg" version="1.1">
 <metadata>
  <rdf:RDF xmlns:dc="http://purl.org/dc/elements/1.1/" xmlns:cc="http://creativecommons.org/ns#" xmlns:rdf="http://www.w3.org/1999/02/22-rdf-syntax-ns#">
   <cc:Work>
    <dc:type rdf:resource="http://purl.org/dc/dcmitype/StillImage"/>
    <dc:date>1980-01-01T00:00:00+00:00</dc:date>
    <dc:format>image/svg+xml</dc:format>
    <dc:creator>
     <cc:Agent>
      <dc:title>Matplotlib v3.10.1, https://matplotlib.org/</dc:title>
     </cc:Agent>
    </dc:creator>
   </cc:Work>
  </rdf:RDF>
 </metadata>
 <defs>
  <style type="text/css">*{stroke-linejoin: round; stroke-linecap: butt}</style>
 </defs>
 <g id="figure_1">
  <g id="patch_1">
   <path d="M 0 432 
L 1008 432 
L 1008 0 
L 0 0 
z
" style="fill: #ffffff"/>
  </g>
  <g id="axes_1">
   <g id="patch_2">
    <path d="M 75.62 380.68 
L 665.493636 380.68 
L 665.493636 11.974604 
L 75.62 11.974604 
z
" style="fill: #ffffff"/>
   </g>
   <g id="matplotlib.axis_1">
    <g id="xtick_1">
     <g id="line2d_1">
      <path d="M 102.432438 380.68 
L 102.432438 11.974604 
" clip-path="url(#paf564e7d87)" style="fill: none; stroke: #b0b0b0; stroke-width: 0.8; stroke-linecap: square"/>
     </g>
     <g id="line2d_2">
      <defs>
       <path id="ma29c14efd1" d="M 0 0 
L 0 3.5 
" style="stroke: #000000; stroke-width: 0.8"/>
      </defs>
      <g>
       <use xlink:href="#ma29c14efd1" x="102.432438" y="380.68" style="stroke: #000000; stroke-width: 0.8"/>
      </g>
     </g>
     <g id="text_1">
      <!-- 1 -->
      <g transform="translate(98.296813 397.557969) scale(0.13 -0.13)">
       <defs>
        <path id="DejaVuSans-31" d="M 794 531 
L 1825 531 
L 1825 4091 
L 703 3866 
L 703 4441 
L 1819 4666 
L 2450 4666 
L 2450 531 
L 3481 531 
L 3481 0 
L 794 0 
L 794 531 
z
" transform="scale(0.015625)"/>
       </defs>
       <use xlink:href="#DejaVuSans-31"/>
      </g>
     </g>
    </g>
    <g id="xtick_2">
     <g id="line2d_3">
      <path d="M 209.68219 380.68 
L 209.68219 11.974604 
" clip-path="url(#paf564e7d87)" style="fill: none; stroke: #b0b0b0; stroke-width: 0.8; stroke-linecap: square"/>
     </g>
     <g id="line2d_4">
      <g>
       <use xlink:href="#ma29c14efd1" x="209.68219" y="380.68" style="stroke: #000000; stroke-width: 0.8"/>
      </g>
     </g>
     <g id="text_2">
      <!-- 2 -->
      <g transform="translate(205.546565 397.557969) scale(0.13 -0.13)">
       <defs>
        <path id="DejaVuSans-32" d="M 1228 531 
L 3431 531 
L 3431 0 
L 469 0 
L 469 531 
Q 828 903 1448 1529 
Q 2069 2156 2228 2338 
Q 2531 2678 2651 2914 
Q 2772 3150 2772 3378 
Q 2772 3750 2511 3984 
Q 2250 4219 1831 4219 
Q 1534 4219 1204 4116 
Q 875 4013 500 3803 
L 500 4441 
Q 881 4594 1212 4672 
Q 1544 4750 1819 4750 
Q 2544 4750 2975 4387 
Q 3406 4025 3406 3419 
Q 3406 3131 3298 2873 
Q 3191 2616 2906 2266 
Q 2828 2175 2409 1742 
Q 1991 1309 1228 531 
z
" transform="scale(0.015625)"/>
       </defs>
       <use xlink:href="#DejaVuSans-32"/>
      </g>
     </g>
    </g>
    <g id="xtick_3">
     <g id="line2d_5">
      <path d="M 316.931942 380.68 
L 316.931942 11.974604 
" clip-path="url(#paf564e7d87)" style="fill: none; stroke: #b0b0b0; stroke-width: 0.8; stroke-linecap: square"/>
     </g>
     <g id="line2d_6">
      <g>
       <use xlink:href="#ma29c14efd1" x="316.931942" y="380.68" style="stroke: #000000; stroke-width: 0.8"/>
      </g>
     </g>
     <g id="text_3">
      <!-- 3 -->
      <g transform="translate(312.796317 397.557969) scale(0.13 -0.13)">
       <defs>
        <path id="DejaVuSans-33" d="M 2597 2516 
Q 3050 2419 3304 2112 
Q 3559 1806 3559 1356 
Q 3559 666 3084 287 
Q 2609 -91 1734 -91 
Q 1441 -91 1130 -33 
Q 819 25 488 141 
L 488 750 
Q 750 597 1062 519 
Q 1375 441 1716 441 
Q 2309 441 2620 675 
Q 2931 909 2931 1356 
Q 2931 1769 2642 2001 
Q 2353 2234 1838 2234 
L 1294 2234 
L 1294 2753 
L 1863 2753 
Q 2328 2753 2575 2939 
Q 2822 3125 2822 3475 
Q 2822 3834 2567 4026 
Q 2313 4219 1838 4219 
Q 1578 4219 1281 4162 
Q 984 4106 628 3988 
L 628 4550 
Q 988 4650 1302 4700 
Q 1616 4750 1894 4750 
Q 2613 4750 3031 4423 
Q 3450 4097 3450 3541 
Q 3450 3153 3228 2886 
Q 3006 2619 2597 2516 
z
" transform="scale(0.015625)"/>
       </defs>
       <use xlink:href="#DejaVuSans-33"/>
      </g>
     </g>
    </g>
    <g id="xtick_4">
     <g id="line2d_7">
      <path d="M 424.181694 380.68 
L 424.181694 11.974604 
" clip-path="url(#paf564e7d87)" style="fill: none; stroke: #b0b0b0; stroke-width: 0.8; stroke-linecap: square"/>
     </g>
     <g id="line2d_8">
      <g>
       <use xlink:href="#ma29c14efd1" x="424.181694" y="380.68" style="stroke: #000000; stroke-width: 0.8"/>
      </g>
     </g>
     <g id="text_4">
      <!-- 4 -->
      <g transform="translate(420.046069 397.557969) scale(0.13 -0.13)">
       <defs>
        <path id="DejaVuSans-34" d="M 2419 4116 
L 825 1625 
L 2419 1625 
L 2419 4116 
z
M 2253 4666 
L 3047 4666 
L 3047 1625 
L 3713 1625 
L 3713 1100 
L 3047 1100 
L 3047 0 
L 2419 0 
L 2419 1100 
L 313 1100 
L 313 1709 
L 2253 4666 
z
" transform="scale(0.015625)"/>
       </defs>
       <use xlink:href="#DejaVuSans-34"/>
      </g>
     </g>
    </g>
    <g id="xtick_5">
     <g id="line2d_9">
      <path d="M 531.431446 380.68 
L 531.431446 11.974604 
" clip-path="url(#paf564e7d87)" style="fill: none; stroke: #b0b0b0; stroke-width: 0.8; stroke-linecap: square"/>
     </g>
     <g id="line2d_10">
      <g>
       <use xlink:href="#ma29c14efd1" x="531.431446" y="380.68" style="stroke: #000000; stroke-width: 0.8"/>
      </g>
     </g>
     <g id="text_5">
      <!-- 5 -->
      <g transform="translate(527.295821 397.557969) scale(0.13 -0.13)">
       <defs>
        <path id="DejaVuSans-35" d="M 691 4666 
L 3169 4666 
L 3169 4134 
L 1269 4134 
L 1269 2991 
Q 1406 3038 1543 3061 
Q 1681 3084 1819 3084 
Q 2600 3084 3056 2656 
Q 3513 2228 3513 1497 
Q 3513 744 3044 326 
Q 2575 -91 1722 -91 
Q 1428 -91 1123 -41 
Q 819 9 494 109 
L 494 744 
Q 775 591 1075 516 
Q 1375 441 1709 441 
Q 2250 441 2565 725 
Q 2881 1009 2881 1497 
Q 2881 1984 2565 2268 
Q 2250 2553 1709 2553 
Q 1456 2553 1204 2497 
Q 953 2441 691 2322 
L 691 4666 
z
" transform="scale(0.015625)"/>
       </defs>
       <use xlink:href="#DejaVuSans-35"/>
      </g>
     </g>
    </g>
    <g id="xtick_6">
     <g id="line2d_11">
      <path d="M 638.681198 380.68 
L 638.681198 11.974604 
" clip-path="url(#paf564e7d87)" style="fill: none; stroke: #b0b0b0; stroke-width: 0.8; stroke-linecap: square"/>
     </g>
     <g id="line2d_12">
      <g>
       <use xlink:href="#ma29c14efd1" x="638.681198" y="380.68" style="stroke: #000000; stroke-width: 0.8"/>
      </g>
     </g>
     <g id="text_6">
      <!-- 6 -->
      <g transform="translate(634.545573 397.557969) scale(0.13 -0.13)">
       <defs>
        <path id="DejaVuSans-36" d="M 2113 2584 
Q 1688 2584 1439 2293 
Q 1191 2003 1191 1497 
Q 1191 994 1439 701 
Q 1688 409 2113 409 
Q 2538 409 2786 701 
Q 3034 994 3034 1497 
Q 3034 2003 2786 2293 
Q 2538 2584 2113 2584 
z
M 3366 4563 
L 3366 3988 
Q 3128 4100 2886 4159 
Q 2644 4219 2406 4219 
Q 1781 4219 1451 3797 
Q 1122 3375 1075 2522 
Q 1259 2794 1537 2939 
Q 1816 3084 2150 3084 
Q 2853 3084 3261 2657 
Q 3669 2231 3669 1497 
Q 3669 778 3244 343 
Q 2819 -91 2113 -91 
Q 1303 -91 875 529 
Q 447 1150 447 2328 
Q 447 3434 972 4092 
Q 1497 4750 2381 4750 
Q 2619 4750 2861 4703 
Q 3103 4656 3366 4563 
z
" transform="scale(0.015625)"/>
       </defs>
       <use xlink:href="#DejaVuSans-36"/>
      </g>
     </g>
    </g>
    <g id="text_7">
     <!-- Number of threads -->
     <g transform="translate(295.236818 416.419062) scale(0.16 -0.16)">
      <defs>
       <path id="DejaVuSans-4e" d="M 628 4666 
L 1478 4666 
L 3547 763 
L 3547 4666 
L 4159 4666 
L 4159 0 
L 3309 0 
L 1241 3903 
L 1241 0 
L 628 0 
L 628 4666 
z
" transform="scale(0.015625)"/>
       <path id="DejaVuSans-75" d="M 544 1381 
L 544 3500 
L 1119 3500 
L 1119 1403 
Q 1119 906 1312 657 
Q 1506 409 1894 409 
Q 2359 409 2629 706 
Q 2900 1003 2900 1516 
L 2900 3500 
L 3475 3500 
L 3475 0 
L 2900 0 
L 2900 538 
Q 2691 219 2414 64 
Q 2138 -91 1772 -91 
Q 1169 -91 856 284 
Q 544 659 544 1381 
z
M 1991 3584 
L 1991 3584 
z
" transform="scale(0.015625)"/>
       <path id="DejaVuSans-6d" d="M 3328 2828 
Q 3544 3216 3844 3400 
Q 4144 3584 4550 3584 
Q 5097 3584 5394 3201 
Q 5691 2819 5691 2113 
L 5691 0 
L 5113 0 
L 5113 2094 
Q 5113 2597 4934 2840 
Q 4756 3084 4391 3084 
Q 3944 3084 3684 2787 
Q 3425 2491 3425 1978 
L 3425 0 
L 2847 0 
L 2847 2094 
Q 2847 2600 2669 2842 
Q 2491 3084 2119 3084 
Q 1678 3084 1418 2786 
Q 1159 2488 1159 1978 
L 1159 0 
L 581 0 
L 581 3500 
L 1159 3500 
L 1159 2956 
Q 1356 3278 1631 3431 
Q 1906 3584 2284 3584 
Q 2666 3584 2933 3390 
Q 3200 3197 3328 2828 
z
" transform="scale(0.015625)"/>
       <path id="DejaVuSans-62" d="M 3116 1747 
Q 3116 2381 2855 2742 
Q 2594 3103 2138 3103 
Q 1681 3103 1420 2742 
Q 1159 2381 1159 1747 
Q 1159 1113 1420 752 
Q 1681 391 2138 391 
Q 2594 391 2855 752 
Q 3116 1113 3116 1747 
z
M 1159 2969 
Q 1341 3281 1617 3432 
Q 1894 3584 2278 3584 
Q 2916 3584 3314 3078 
Q 3713 2572 3713 1747 
Q 3713 922 3314 415 
Q 2916 -91 2278 -91 
Q 1894 -91 1617 61 
Q 1341 213 1159 525 
L 1159 0 
L 581 0 
L 581 4863 
L 1159 4863 
L 1159 2969 
z
" transform="scale(0.015625)"/>
       <path id="DejaVuSans-65" d="M 3597 1894 
L 3597 1613 
L 953 1613 
Q 991 1019 1311 708 
Q 1631 397 2203 397 
Q 2534 397 2845 478 
Q 3156 559 3463 722 
L 3463 178 
Q 3153 47 2828 -22 
Q 2503 -91 2169 -91 
Q 1331 -91 842 396 
Q 353 884 353 1716 
Q 353 2575 817 3079 
Q 1281 3584 2069 3584 
Q 2775 3584 3186 3129 
Q 3597 2675 3597 1894 
z
M 3022 2063 
Q 3016 2534 2758 2815 
Q 2500 3097 2075 3097 
Q 1594 3097 1305 2825 
Q 1016 2553 972 2059 
L 3022 2063 
z
" transform="scale(0.015625)"/>
       <path id="DejaVuSans-72" d="M 2631 2963 
Q 2534 3019 2420 3045 
Q 2306 3072 2169 3072 
Q 1681 3072 1420 2755 
Q 1159 2438 1159 1844 
L 1159 0 
L 581 0 
L 581 3500 
L 1159 3500 
L 1159 2956 
Q 1341 3275 1631 3429 
Q 1922 3584 2338 3584 
Q 2397 3584 2469 3576 
Q 2541 3569 2628 3553 
L 2631 2963 
z
" transform="scale(0.015625)"/>
       <path id="DejaVuSans-20" transform="scale(0.015625)"/>
       <path id="DejaVuSans-6f" d="M 1959 3097 
Q 1497 3097 1228 2736 
Q 959 2375 959 1747 
Q 959 1119 1226 758 
Q 1494 397 1959 397 
Q 2419 397 2687 759 
Q 2956 1122 2956 1747 
Q 2956 2369 2687 2733 
Q 2419 3097 1959 3097 
z
M 1959 3584 
Q 2709 3584 3137 3096 
Q 3566 2609 3566 1747 
Q 3566 888 3137 398 
Q 2709 -91 1959 -91 
Q 1206 -91 779 398 
Q 353 888 353 1747 
Q 353 2609 779 3096 
Q 1206 3584 1959 3584 
z
" transform="scale(0.015625)"/>
       <path id="DejaVuSans-66" d="M 2375 4863 
L 2375 4384 
L 1825 4384 
Q 1516 4384 1395 4259 
Q 1275 4134 1275 3809 
L 1275 3500 
L 2222 3500 
L 2222 3053 
L 1275 3053 
L 1275 0 
L 697 0 
L 697 3053 
L 147 3053 
L 147 3500 
L 697 3500 
L 697 3744 
Q 697 4328 969 4595 
Q 1241 4863 1831 4863 
L 2375 4863 
z
" transform="scale(0.015625)"/>
       <path id="DejaVuSans-74" d="M 1172 4494 
L 1172 3500 
L 2356 3500 
L 2356 3053 
L 1172 3053 
L 1172 1153 
Q 1172 725 1289 603 
Q 1406 481 1766 481 
L 2356 481 
L 2356 0 
L 1766 0 
Q 1100 0 847 248 
Q 594 497 594 1153 
L 594 3053 
L 172 3053 
L 172 3500 
L 594 3500 
L 594 4494 
L 1172 4494 
z
" transform="scale(0.015625)"/>
       <path id="DejaVuSans-68" d="M 3513 2113 
L 3513 0 
L 2938 0 
L 2938 2094 
Q 2938 2591 2744 2837 
Q 2550 3084 2163 3084 
Q 1697 3084 1428 2787 
Q 1159 2491 1159 1978 
L 1159 0 
L 581 0 
L 581 4863 
L 1159 4863 
L 1159 2956 
Q 1366 3272 1645 3428 
Q 1925 3584 2291 3584 
Q 2894 3584 3203 3211 
Q 3513 2838 3513 2113 
z
" transform="scale(0.015625)"/>
       <path id="DejaVuSans-61" d="M 2194 1759 
Q 1497 1759 1228 1600 
Q 959 1441 959 1056 
Q 959 750 1161 570 
Q 1363 391 1709 391 
Q 2188 391 2477 730 
Q 2766 1069 2766 1631 
L 2766 1759 
L 2194 1759 
z
M 3341 1997 
L 3341 0 
L 2766 0 
L 2766 531 
Q 2569 213 2275 61 
Q 1981 -91 1556 -91 
Q 1019 -91 701 211 
Q 384 513 384 1019 
Q 384 1609 779 1909 
Q 1175 2209 1959 2209 
L 2766 2209 
L 2766 2266 
Q 2766 2663 2505 2880 
Q 2244 3097 1772 3097 
Q 1472 3097 1187 3025 
Q 903 2953 641 2809 
L 641 3341 
Q 956 3463 1253 3523 
Q 1550 3584 1831 3584 
Q 2591 3584 2966 3190 
Q 3341 2797 3341 1997 
z
" transform="scale(0.015625)"/>
       <path id="DejaVuSans-64" d="M 2906 2969 
L 2906 4863 
L 3481 4863 
L 3481 0 
L 2906 0 
L 2906 525 
Q 2725 213 2448 61 
Q 2172 -91 1784 -91 
Q 1150 -91 751 415 
Q 353 922 353 1747 
Q 353 2572 751 3078 
Q 1150 3584 1784 3584 
Q 2172 3584 2448 3432 
Q 2725 3281 2906 2969 
z
M 947 1747 
Q 947 1113 1208 752 
Q 1469 391 1925 391 
Q 2381 391 2643 752 
Q 2906 1113 2906 1747 
Q 2906 2381 2643 2742 
Q 2381 3103 1925 3103 
Q 1469 3103 1208 2742 
Q 947 2381 947 1747 
z
" transform="scale(0.015625)"/>
       <path id="DejaVuSans-73" d="M 2834 3397 
L 2834 2853 
Q 2591 2978 2328 3040 
Q 2066 3103 1784 3103 
Q 1356 3103 1142 2972 
Q 928 2841 928 2578 
Q 928 2378 1081 2264 
Q 1234 2150 1697 2047 
L 1894 2003 
Q 2506 1872 2764 1633 
Q 3022 1394 3022 966 
Q 3022 478 2636 193 
Q 2250 -91 1575 -91 
Q 1294 -91 989 -36 
Q 684 19 347 128 
L 347 722 
Q 666 556 975 473 
Q 1284 391 1588 391 
Q 1994 391 2212 530 
Q 2431 669 2431 922 
Q 2431 1156 2273 1281 
Q 2116 1406 1581 1522 
L 1381 1569 
Q 847 1681 609 1914 
Q 372 2147 372 2553 
Q 372 3047 722 3315 
Q 1072 3584 1716 3584 
Q 2034 3584 2315 3537 
Q 2597 3491 2834 3397 
z
" transform="scale(0.015625)"/>
      </defs>
      <use xlink:href="#DejaVuSans-4e"/>
      <use xlink:href="#DejaVuSans-75" transform="translate(74.804688 0)"/>
      <use xlink:href="#DejaVuSans-6d" transform="translate(138.183594 0)"/>
      <use xlink:href="#DejaVuSans-62" transform="translate(235.595703 0)"/>
      <use xlink:href="#DejaVuSans-65" transform="translate(299.072266 0)"/>
      <use xlink:href="#DejaVuSans-72" transform="translate(360.595703 0)"/>
      <use xlink:href="#DejaVuSans-20" transform="translate(401.708984 0)"/>
      <use xlink:href="#DejaVuSans-6f" transform="translate(433.496094 0)"/>
      <use xlink:href="#DejaVuSans-66" transform="translate(494.677734 0)"/>
      <use xlink:href="#DejaVuSans-20" transform="translate(529.882812 0)"/>
      <use xlink:href="#DejaVuSans-74" transform="translate(561.669922 0)"/>
      <use xlink:href="#DejaVuSans-68" transform="translate(600.878906 0)"/>
      <use xlink:href="#DejaVuSans-72" transform="translate(664.257812 0)"/>
      <use xlink:href="#DejaVuSans-65" transform="translate(703.121094 0)"/>
      <use xlink:href="#DejaVuSans-61" transform="translate(764.644531 0)"/>
      <use xlink:href="#DejaVuSans-64" transform="translate(825.923828 0)"/>
      <use xlink:href="#DejaVuSans-73" transform="translate(889.400391 0)"/>
     </g>
    </g>
   </g>
   <g id="matplotlib.axis_2">
    <g id="ytick_1">
     <g id="line2d_13">
      <path d="M 75.62 353.490359 
L 665.493636 353.490359 
" clip-path="url(#paf564e7d87)" style="fill: none; stroke: #b0b0b0; stroke-width: 0.8; stroke-linecap: square"/>
     </g>
     <g id="line2d_14">
      <defs>
       <path id="mc93a1fa2d9" d="M 0 0 
L -3.5 0 
" style="stroke: #000000; stroke-width: 0.8"/>
      </defs>
      <g>
       <use xlink:href="#mc93a1fa2d9" x="75.62" y="353.490359" style="stroke: #000000; stroke-width: 0.8"/>
      </g>
     </g>
     <g id="text_8">
      <!-- 0.003 -->
      <g transform="translate(31.403438 358.429344) scale(0.13 -0.13)">
       <defs>
        <path id="DejaVuSans-30" d="M 2034 4250 
Q 1547 4250 1301 3770 
Q 1056 3291 1056 2328 
Q 1056 1369 1301 889 
Q 1547 409 2034 409 
Q 2525 409 2770 889 
Q 3016 1369 3016 2328 
Q 3016 3291 2770 3770 
Q 2525 4250 2034 4250 
z
M 2034 4750 
Q 2819 4750 3233 4129 
Q 3647 3509 3647 2328 
Q 3647 1150 3233 529 
Q 2819 -91 2034 -91 
Q 1250 -91 836 529 
Q 422 1150 422 2328 
Q 422 3509 836 4129 
Q 1250 4750 2034 4750 
z
" transform="scale(0.015625)"/>
        <path id="DejaVuSans-2e" d="M 684 794 
L 1344 794 
L 1344 0 
L 684 0 
L 684 794 
z
" transform="scale(0.015625)"/>
       </defs>
       <use xlink:href="#DejaVuSans-30"/>
       <use xlink:href="#DejaVuSans-2e" transform="translate(63.623047 0)"/>
       <use xlink:href="#DejaVuSans-30" transform="translate(95.410156 0)"/>
       <use xlink:href="#DejaVuSans-30" transform="translate(159.033203 0)"/>
       <use xlink:href="#DejaVuSans-33" transform="translate(222.65625 0)"/>
      </g>
     </g>
    </g>
    <g id="ytick_2">
     <g id="line2d_15">
      <path d="M 75.62 286.044106 
L 665.493636 286.044106 
" clip-path="url(#paf564e7d87)" style="fill: none; stroke: #b0b0b0; stroke-width: 0.8; stroke-linecap: square"/>
     </g>
     <g id="line2d_16">
      <g>
       <use xlink:href="#mc93a1fa2d9" x="75.62" y="286.044106" style="stroke: #000000; stroke-width: 0.8"/>
      </g>
     </g>
     <g id="text_9">
      <!-- 0.004 -->
      <g transform="translate(31.403438 290.98309) scale(0.13 -0.13)">
       <use xlink:href="#DejaVuSans-30"/>
       <use xlink:href="#DejaVuSans-2e" transform="translate(63.623047 0)"/>
       <use xlink:href="#DejaVuSans-30" transform="translate(95.410156 0)"/>
       <use xlink:href="#DejaVuSans-30" transform="translate(159.033203 0)"/>
       <use xlink:href="#DejaVuSans-34" transform="translate(222.65625 0)"/>
      </g>
     </g>
    </g>
    <g id="ytick_3">
     <g id="line2d_17">
      <path d="M 75.62 218.597853 
L 665.493636 218.597853 
" clip-path="url(#paf564e7d87)" style="fill: none; stroke: #b0b0b0; stroke-width: 0.8; stroke-linecap: square"/>
     </g>
     <g id="line2d_18">
      <g>
       <use xlink:href="#mc93a1fa2d9" x="75.62" y="218.597853" style="stroke: #000000; stroke-width: 0.8"/>
      </g>
     </g>
     <g id="text_10">
      <!-- 0.005 -->
      <g transform="translate(31.403438 223.536837) scale(0.13 -0.13)">
       <use xlink:href="#DejaVuSans-30"/>
       <use xlink:href="#DejaVuSans-2e" transform="translate(63.623047 0)"/>
       <use xlink:href="#DejaVuSans-30" transform="translate(95.410156 0)"/>
       <use xlink:href="#DejaVuSans-30" transform="translate(159.033203 0)"/>
       <use xlink:href="#DejaVuSans-35" transform="translate(222.65625 0)"/>
      </g>
     </g>
    </g>
    <g id="ytick_4">
     <g id="line2d_19">
      <path d="M 75.62 151.151599 
L 665.493636 151.151599 
" clip-path="url(#paf564e7d87)" style="fill: none; stroke: #b0b0b0; stroke-width: 0.8; stroke-linecap: square"/>
     </g>
     <g id="line2d_20">
      <g>
       <use xlink:href="#mc93a1fa2d9" x="75.62" y="151.151599" style="stroke: #000000; stroke-width: 0.8"/>
      </g>
     </g>
     <g id="text_11">
      <!-- 0.006 -->
      <g transform="translate(31.403438 156.090584) scale(0.13 -0.13)">
       <use xlink:href="#DejaVuSans-30"/>
       <use xlink:href="#DejaVuSans-2e" transform="translate(63.623047 0)"/>
       <use xlink:href="#DejaVuSans-30" transform="translate(95.410156 0)"/>
       <use xlink:href="#DejaVuSans-30" transform="translate(159.033203 0)"/>
       <use xlink:href="#DejaVuSans-36" transform="translate(222.65625 0)"/>
      </g>
     </g>
    </g>
    <g id="ytick_5">
     <g id="line2d_21">
      <path d="M 75.62 83.705346 
L 665.493636 83.705346 
" clip-path="url(#paf564e7d87)" style="fill: none; stroke: #b0b0b0; stroke-width: 0.8; stroke-linecap: square"/>
     </g>
     <g id="line2d_22">
      <g>
       <use xlink:href="#mc93a1fa2d9" x="75.62" y="83.705346" style="stroke: #000000; stroke-width: 0.8"/>
      </g>
     </g>
     <g id="text_12">
      <!-- 0.007 -->
      <g transform="translate(31.403438 88.64433) scale(0.13 -0.13)">
       <defs>
        <path id="DejaVuSans-37" d="M 525 4666 
L 3525 4666 
L 3525 4397 
L 1831 0 
L 1172 0 
L 2766 4134 
L 525 4134 
L 525 4666 
z
" transform="scale(0.015625)"/>
       </defs>
       <use xlink:href="#DejaVuSans-30"/>
       <use xlink:href="#DejaVuSans-2e" transform="translate(63.623047 0)"/>
       <use xlink:href="#DejaVuSans-30" transform="translate(95.410156 0)"/>
       <use xlink:href="#DejaVuSans-30" transform="translate(159.033203 0)"/>
       <use xlink:href="#DejaVuSans-37" transform="translate(222.65625 0)"/>
      </g>
     </g>
    </g>
    <g id="ytick_6">
     <g id="line2d_23">
      <path d="M 75.62 16.259093 
L 665.493636 16.259093 
" clip-path="url(#paf564e7d87)" style="fill: none; stroke: #b0b0b0; stroke-width: 0.8; stroke-linecap: square"/>
     </g>
     <g id="line2d_24">
      <g>
       <use xlink:href="#mc93a1fa2d9" x="75.62" y="16.259093" style="stroke: #000000; stroke-width: 0.8"/>
      </g>
     </g>
     <g id="text_13">
      <!-- 0.008 -->
      <g transform="translate(31.403438 21.198077) scale(0.13 -0.13)">
       <defs>
        <path id="DejaVuSans-38" d="M 2034 2216 
Q 1584 2216 1326 1975 
Q 1069 1734 1069 1313 
Q 1069 891 1326 650 
Q 1584 409 2034 409 
Q 2484 409 2743 651 
Q 3003 894 3003 1313 
Q 3003 1734 2745 1975 
Q 2488 2216 2034 2216 
z
M 1403 2484 
Q 997 2584 770 2862 
Q 544 3141 544 3541 
Q 544 4100 942 4425 
Q 1341 4750 2034 4750 
Q 2731 4750 3128 4425 
Q 3525 4100 3525 3541 
Q 3525 3141 3298 2862 
Q 3072 2584 2669 2484 
Q 3125 2378 3379 2068 
Q 3634 1759 3634 1313 
Q 3634 634 3220 271 
Q 2806 -91 2034 -91 
Q 1263 -91 848 271 
Q 434 634 434 1313 
Q 434 1759 690 2068 
Q 947 2378 1403 2484 
z
M 1172 3481 
Q 1172 3119 1398 2916 
Q 1625 2713 2034 2713 
Q 2441 2713 2670 2916 
Q 2900 3119 2900 3481 
Q 2900 3844 2670 4047 
Q 2441 4250 2034 4250 
Q 1625 4250 1398 4047 
Q 1172 3844 1172 3481 
z
" transform="scale(0.015625)"/>
       </defs>
       <use xlink:href="#DejaVuSans-30"/>
       <use xlink:href="#DejaVuSans-2e" transform="translate(63.623047 0)"/>
       <use xlink:href="#DejaVuSans-30" transform="translate(95.410156 0)"/>
       <use xlink:href="#DejaVuSans-30" transform="translate(159.033203 0)"/>
       <use xlink:href="#DejaVuSans-38" transform="translate(222.65625 0)"/>
      </g>
     </g>
    </g>
    <g id="text_14">
     <!-- Runtime (s) -->
     <g transform="translate(24.075937 242.692302) rotate(-90) scale(0.16 -0.16)">
      <defs>
       <path id="DejaVuSans-52" d="M 2841 2188 
Q 3044 2119 3236 1894 
Q 3428 1669 3622 1275 
L 4263 0 
L 3584 0 
L 2988 1197 
Q 2756 1666 2539 1819 
Q 2322 1972 1947 1972 
L 1259 1972 
L 1259 0 
L 628 0 
L 628 4666 
L 2053 4666 
Q 2853 4666 3247 4331 
Q 3641 3997 3641 3322 
Q 3641 2881 3436 2590 
Q 3231 2300 2841 2188 
z
M 1259 4147 
L 1259 2491 
L 2053 2491 
Q 2509 2491 2742 2702 
Q 2975 2913 2975 3322 
Q 2975 3731 2742 3939 
Q 2509 4147 2053 4147 
L 1259 4147 
z
" transform="scale(0.015625)"/>
       <path id="DejaVuSans-6e" d="M 3513 2113 
L 3513 0 
L 2938 0 
L 2938 2094 
Q 2938 2591 2744 2837 
Q 2550 3084 2163 3084 
Q 1697 3084 1428 2787 
Q 1159 2491 1159 1978 
L 1159 0 
L 581 0 
L 581 3500 
L 1159 3500 
L 1159 2956 
Q 1366 3272 1645 3428 
Q 1925 3584 2291 3584 
Q 2894 3584 3203 3211 
Q 3513 2838 3513 2113 
z
" transform="scale(0.015625)"/>
       <path id="DejaVuSans-69" d="M 603 3500 
L 1178 3500 
L 1178 0 
L 603 0 
L 603 3500 
z
M 603 4863 
L 1178 4863 
L 1178 4134 
L 603 4134 
L 603 4863 
z
" transform="scale(0.015625)"/>
       <path id="DejaVuSans-28" d="M 1984 4856 
Q 1566 4138 1362 3434 
Q 1159 2731 1159 2009 
Q 1159 1288 1364 580 
Q 1569 -128 1984 -844 
L 1484 -844 
Q 1016 -109 783 600 
Q 550 1309 550 2009 
Q 550 2706 781 3412 
Q 1013 4119 1484 4856 
L 1984 4856 
z
" transform="scale(0.015625)"/>
       <path id="DejaVuSans-29" d="M 513 4856 
L 1013 4856 
Q 1481 4119 1714 3412 
Q 1947 2706 1947 2009 
Q 1947 1309 1714 600 
Q 1481 -109 1013 -844 
L 513 -844 
Q 928 -128 1133 580 
Q 1338 1288 1338 2009 
Q 1338 2731 1133 3434 
Q 928 4138 513 4856 
z
" transform="scale(0.015625)"/>
      </defs>
      <use xlink:href="#DejaVuSans-52"/>
      <use xlink:href="#DejaVuSans-75" transform="translate(64.982422 0)"/>
      <use xlink:href="#DejaVuSans-6e" transform="translate(128.361328 0)"/>
      <use xlink:href="#DejaVuSans-74" transform="translate(191.740234 0)"/>
      <use xlink:href="#DejaVuSans-69" transform="translate(230.949219 0)"/>
      <use xlink:href="#DejaVuSans-6d" transform="translate(258.732422 0)"/>
      <use xlink:href="#DejaVuSans-65" transform="translate(356.144531 0)"/>
      <use xlink:href="#DejaVuSans-20" transform="translate(417.667969 0)"/>
      <use xlink:href="#DejaVuSans-28" transform="translate(449.455078 0)"/>
      <use xlink:href="#DejaVuSans-73" transform="translate(488.46875 0)"/>
      <use xlink:href="#DejaVuSans-29" transform="translate(540.568359 0)"/>
     </g>
    </g>
   </g>
   <g id="LineCollection_1">
    <path d="M 102.432438 187.788831 
L 102.432438 150.277788 
" clip-path="url(#paf564e7d87)" style="fill: none; stroke: #000000; stroke-width: 2"/>
    <path d="M 209.68219 344.666776 
L 209.68219 330.544779 
" clip-path="url(#paf564e7d87)" style="fill: none; stroke: #000000; stroke-width: 2"/>
    <path d="M 316.931942 279.481957 
L 316.931942 268.432529 
" clip-path="url(#paf564e7d87)" style="fill: none; stroke: #000000; stroke-width: 2"/>
    <path d="M 424.181694 329.541105 
L 424.181694 314.371701 
" clip-path="url(#paf564e7d87)" style="fill: none; stroke: #000000; stroke-width: 2"/>
    <path d="M 531.431446 304.277683 
L 531.431446 283.509813 
" clip-path="url(#paf564e7d87)" style="fill: none; stroke: #000000; stroke-width: 2"/>
    <path d="M 638.681198 329.311012 
L 638.681198 300.013776 
" clip-path="url(#paf564e7d87)" style="fill: none; stroke: #000000; stroke-width: 2"/>
   </g>
   <g id="LineCollection_2">
    <path d="M 102.432438 171.317636 
L 102.432438 169.709605 
" clip-path="url(#paf564e7d87)" style="fill: none; stroke: #555555; stroke-width: 2"/>
    <path d="M 209.68219 339.798539 
L 209.68219 335.816872 
" clip-path="url(#paf564e7d87)" style="fill: none; stroke: #555555; stroke-width: 2"/>
    <path d="M 316.931942 278.292952 
L 316.931942 268.538527 
" clip-path="url(#paf564e7d87)" style="fill: none; stroke: #555555; stroke-width: 2"/>
    <path d="M 424.181694 344.578495 
L 424.181694 301.207923 
" clip-path="url(#paf564e7d87)" style="fill: none; stroke: #555555; stroke-width: 2"/>
    <path d="M 531.431446 295.487694 
L 531.431446 290.782531 
" clip-path="url(#paf564e7d87)" style="fill: none; stroke: #555555; stroke-width: 2"/>
    <path d="M 638.681198 334.802104 
L 638.681198 304.645558 
" clip-path="url(#paf564e7d87)" style="fill: none; stroke: #555555; stroke-width: 2"/>
   </g>
   <g id="LineCollection_3">
    <path d="M 102.432438 197.91003 
L 102.432438 196.490533 
" clip-path="url(#paf564e7d87)" style="fill: none; stroke: #000088; stroke-width: 2"/>
    <path d="M 209.68219 356.570888 
L 209.68219 355.356608 
" clip-path="url(#paf564e7d87)" style="fill: none; stroke: #000088; stroke-width: 2"/>
    <path d="M 316.931942 302.040975 
L 316.931942 301.266354 
" clip-path="url(#paf564e7d87)" style="fill: none; stroke: #000088; stroke-width: 2"/>
    <path d="M 424.181694 357.133109 
L 424.181694 351.215689 
" clip-path="url(#paf564e7d87)" style="fill: none; stroke: #000088; stroke-width: 2"/>
    <path d="M 531.431446 321.859449 
L 531.431446 321.370441 
" clip-path="url(#paf564e7d87)" style="fill: none; stroke: #000088; stroke-width: 2"/>
    <path d="M 638.681198 360.924342 
L 638.681198 342.073541 
" clip-path="url(#paf564e7d87)" style="fill: none; stroke: #000088; stroke-width: 2"/>
   </g>
   <g id="LineCollection_4">
    <path d="M 102.432438 198.058366 
L 102.432438 195.788553 
" clip-path="url(#paf564e7d87)" style="fill: none; stroke: #0000ff; stroke-width: 2"/>
    <path d="M 209.68219 357.571082 
L 209.68219 356.174136 
" clip-path="url(#paf564e7d87)" style="fill: none; stroke: #0000ff; stroke-width: 2"/>
    <path d="M 316.931942 301.89411 
L 316.931942 301.20463 
" clip-path="url(#paf564e7d87)" style="fill: none; stroke: #0000ff; stroke-width: 2"/>
    <path d="M 424.181694 363.920664 
L 424.181694 345.820832 
" clip-path="url(#paf564e7d87)" style="fill: none; stroke: #0000ff; stroke-width: 2"/>
    <path d="M 531.431446 322.677086 
L 531.431446 321.174029 
" clip-path="url(#paf564e7d87)" style="fill: none; stroke: #0000ff; stroke-width: 2"/>
    <path d="M 638.681198 359.05291 
L 638.681198 345.936615 
" clip-path="url(#paf564e7d87)" style="fill: none; stroke: #0000ff; stroke-width: 2"/>
   </g>
   <g id="LineCollection_5">
    <path d="M 102.432438 168.455565 
L 102.432438 164.873719 
" clip-path="url(#paf564e7d87)" style="fill: none; stroke: #008800; stroke-width: 2"/>
    <path d="M 209.68219 141.086876 
L 209.68219 137.346015 
" clip-path="url(#paf564e7d87)" style="fill: none; stroke: #008800; stroke-width: 2"/>
    <path d="M 316.931942 81.249954 
L 316.931942 30.571941 
" clip-path="url(#paf564e7d87)" style="fill: none; stroke: #008800; stroke-width: 2"/>
    <path d="M 424.181694 94.378952 
L 424.181694 44.316093 
" clip-path="url(#paf564e7d87)" style="fill: none; stroke: #008800; stroke-width: 2"/>
    <path d="M 531.431446 112.86914 
L 531.431446 52.830621 
" clip-path="url(#paf564e7d87)" style="fill: none; stroke: #008800; stroke-width: 2"/>
    <path d="M 638.681198 80.16222 
L 638.681198 40.145998 
" clip-path="url(#paf564e7d87)" style="fill: none; stroke: #008800; stroke-width: 2"/>
   </g>
   <g id="LineCollection_6">
    <path d="M 102.432438 169.125902 
L 102.432438 161.506746 
" clip-path="url(#paf564e7d87)" style="fill: none; stroke: #00ff00; stroke-width: 2"/>
    <path d="M 209.68219 148.966419 
L 209.68219 119.86109 
" clip-path="url(#paf564e7d87)" style="fill: none; stroke: #00ff00; stroke-width: 2"/>
    <path d="M 316.931942 65.39896 
L 316.931942 28.733941 
" clip-path="url(#paf564e7d87)" style="fill: none; stroke: #00ff00; stroke-width: 2"/>
    <path d="M 424.181694 124.241652 
L 424.181694 40.796922 
" clip-path="url(#paf564e7d87)" style="fill: none; stroke: #00ff00; stroke-width: 2"/>
    <path d="M 531.431446 88.582744 
L 531.431446 51.271477 
" clip-path="url(#paf564e7d87)" style="fill: none; stroke: #00ff00; stroke-width: 2"/>
    <path d="M 638.681198 87.129008 
L 638.681198 41.858003 
" clip-path="url(#paf564e7d87)" style="fill: none; stroke: #00ff00; stroke-width: 2"/>
   </g>
   <g id="LineCollection_7">
    <path d="M 102.432438 179.714571 
L 102.432438 176.631198 
" clip-path="url(#paf564e7d87)" style="fill: none; stroke: #880000; stroke-width: 2"/>
    <path d="M 209.68219 342.327588 
L 209.68219 340.753595 
" clip-path="url(#paf564e7d87)" style="fill: none; stroke: #880000; stroke-width: 2"/>
    <path d="M 316.931942 292.277803 
L 316.931942 274.988856 
" clip-path="url(#paf564e7d87)" style="fill: none; stroke: #880000; stroke-width: 2"/>
    <path d="M 424.181694 339.03339 
L 424.181694 328.298644 
" clip-path="url(#paf564e7d87)" style="fill: none; stroke: #880000; stroke-width: 2"/>
    <path d="M 531.431446 304.790893 
L 531.431446 300.580156 
" clip-path="url(#paf564e7d87)" style="fill: none; stroke: #880000; stroke-width: 2"/>
    <path d="M 638.681198 338.252587 
L 638.681198 326.606283 
" clip-path="url(#paf564e7d87)" style="fill: none; stroke: #880000; stroke-width: 2"/>
   </g>
   <g id="LineCollection_8">
    <path d="M 102.432438 180.312156 
L 102.432438 170.358325 
" clip-path="url(#paf564e7d87)" style="fill: none; stroke: #ff0000; stroke-width: 2"/>
    <path d="M 209.68219 341.164781 
L 209.68219 337.469626 
" clip-path="url(#paf564e7d87)" style="fill: none; stroke: #ff0000; stroke-width: 2"/>
    <path d="M 316.931942 282.460169 
L 316.931942 281.794565 
" clip-path="url(#paf564e7d87)" style="fill: none; stroke: #ff0000; stroke-width: 2"/>
    <path d="M 424.181694 343.633584 
L 424.181694 320.215705 
" clip-path="url(#paf564e7d87)" style="fill: none; stroke: #ff0000; stroke-width: 2"/>
    <path d="M 531.431446 301.506775 
L 531.431446 300.371188 
" clip-path="url(#paf564e7d87)" style="fill: none; stroke: #ff0000; stroke-width: 2"/>
    <path d="M 638.681198 347.231636 
L 638.681198 313.174117 
" clip-path="url(#paf564e7d87)" style="fill: none; stroke: #ff0000; stroke-width: 2"/>
   </g>
   <g id="line2d_25">
    <path d="M 102.432438 169.03331 
L 209.68219 337.605777 
L 316.931942 273.957243 
L 424.181694 321.956403 
L 531.431446 293.893748 
L 638.681198 314.662394 
" clip-path="url(#paf564e7d87)" style="fill: none; stroke-dasharray: 2,3.3; stroke-dashoffset: 0; stroke: #000000; stroke-width: 2"/>
    <defs>
     <path id="m84dff04ef1" d="M 0 5 
C 1.326016 5 2.597899 4.473168 3.535534 3.535534 
C 4.473168 2.597899 5 1.326016 5 0 
C 5 -1.326016 4.473168 -2.597899 3.535534 -3.535534 
C 2.597899 -4.473168 1.326016 -5 0 -5 
C -1.326016 -5 -2.597899 -4.473168 -3.535534 -3.535534 
C -4.473168 -2.597899 -5 -1.326016 -5 0 
C -5 1.326016 -4.473168 2.597899 -3.535534 3.535534 
C -2.597899 4.473168 -1.326016 5 0 5 
z
" style="stroke: #000000"/>
    </defs>
    <g clip-path="url(#paf564e7d87)">
     <use xlink:href="#m84dff04ef1" x="102.432438" y="169.03331" style="fill-opacity: 0; stroke: #000000"/>
     <use xlink:href="#m84dff04ef1" x="209.68219" y="337.605777" style="fill-opacity: 0; stroke: #000000"/>
     <use xlink:href="#m84dff04ef1" x="316.931942" y="273.957243" style="fill-opacity: 0; stroke: #000000"/>
     <use xlink:href="#m84dff04ef1" x="424.181694" y="321.956403" style="fill-opacity: 0; stroke: #000000"/>
     <use xlink:href="#m84dff04ef1" x="531.431446" y="293.893748" style="fill-opacity: 0; stroke: #000000"/>
     <use xlink:href="#m84dff04ef1" x="638.681198" y="314.662394" style="fill-opacity: 0; stroke: #000000"/>
    </g>
   </g>
   <g id="line2d_26">
    <path d="M 102.432438 170.51362 
L 209.68219 337.807706 
L 316.931942 273.415739 
L 424.181694 322.893209 
L 531.431446 293.135113 
L 638.681198 319.723831 
" clip-path="url(#paf564e7d87)" style="fill: none; stroke-dasharray: 2,3.3; stroke-dashoffset: 0; stroke: #555555; stroke-width: 2"/>
    <defs>
     <path id="m306055376a" d="M 0 5 
C 1.326016 5 2.597899 4.473168 3.535534 3.535534 
C 4.473168 2.597899 5 1.326016 5 0 
C 5 -1.326016 4.473168 -2.597899 3.535534 -3.535534 
C 2.597899 -4.473168 1.326016 -5 0 -5 
C -1.326016 -5 -2.597899 -4.473168 -3.535534 -3.535534 
C -4.473168 -2.597899 -5 -1.326016 -5 0 
C -5 1.326016 -4.473168 2.597899 -3.535534 3.535534 
C -2.597899 4.473168 -1.326016 5 0 5 
z
" style="stroke: #555555"/>
    </defs>
    <g clip-path="url(#paf564e7d87)">
     <use xlink:href="#m306055376a" x="102.432438" y="170.51362" style="fill: #555555; stroke: #555555"/>
     <use xlink:href="#m306055376a" x="209.68219" y="337.807706" style="fill: #555555; stroke: #555555"/>
     <use xlink:href="#m306055376a" x="316.931942" y="273.415739" style="fill: #555555; stroke: #555555"/>
     <use xlink:href="#m306055376a" x="424.181694" y="322.893209" style="fill: #555555; stroke: #555555"/>
     <use xlink:href="#m306055376a" x="531.431446" y="293.135113" style="fill: #555555; stroke: #555555"/>
     <use xlink:href="#m306055376a" x="638.681198" y="319.723831" style="fill: #555555; stroke: #555555"/>
    </g>
   </g>
   <g id="line2d_27">
    <path d="M 102.432438 197.200282 
L 209.68219 355.963748 
L 316.931942 301.653665 
L 424.181694 354.174399 
L 531.431446 321.614945 
L 638.681198 351.498941 
" clip-path="url(#paf564e7d87)" style="fill: none; stroke-dasharray: 2,3.3; stroke-dashoffset: 0; stroke: #000088; stroke-width: 2"/>
    <defs>
     <path id="m506c86a207" d="M -5 5 
L 5 5 
L 5 -5 
L -5 -5 
z
" style="stroke: #000088; stroke-linejoin: miter"/>
    </defs>
    <g clip-path="url(#paf564e7d87)">
     <use xlink:href="#m506c86a207" x="102.432438" y="197.200282" style="fill-opacity: 0; stroke: #000088; stroke-linejoin: miter"/>
     <use xlink:href="#m506c86a207" x="209.68219" y="355.963748" style="fill-opacity: 0; stroke: #000088; stroke-linejoin: miter"/>
     <use xlink:href="#m506c86a207" x="316.931942" y="301.653665" style="fill-opacity: 0; stroke: #000088; stroke-linejoin: miter"/>
     <use xlink:href="#m506c86a207" x="424.181694" y="354.174399" style="fill-opacity: 0; stroke: #000088; stroke-linejoin: miter"/>
     <use xlink:href="#m506c86a207" x="531.431446" y="321.614945" style="fill-opacity: 0; stroke: #000088; stroke-linejoin: miter"/>
     <use xlink:href="#m506c86a207" x="638.681198" y="351.498941" style="fill-opacity: 0; stroke: #000088; stroke-linejoin: miter"/>
    </g>
   </g>
   <g id="line2d_28">
    <path d="M 102.432438 196.92346 
L 209.68219 356.872609 
L 316.931942 301.54937 
L 424.181694 354.870748 
L 531.431446 321.925558 
L 638.681198 352.494763 
" clip-path="url(#paf564e7d87)" style="fill: none; stroke-dasharray: 2,3.3; stroke-dashoffset: 0; stroke: #0000ff; stroke-width: 2"/>
    <defs>
     <path id="m88db25a07c" d="M -5 5 
L 5 5 
L 5 -5 
L -5 -5 
z
" style="stroke: #0000ff; stroke-linejoin: miter"/>
    </defs>
    <g clip-path="url(#paf564e7d87)">
     <use xlink:href="#m88db25a07c" x="102.432438" y="196.92346" style="fill: #0000ff; stroke: #0000ff; stroke-linejoin: miter"/>
     <use xlink:href="#m88db25a07c" x="209.68219" y="356.872609" style="fill: #0000ff; stroke: #0000ff; stroke-linejoin: miter"/>
     <use xlink:href="#m88db25a07c" x="316.931942" y="301.54937" style="fill: #0000ff; stroke: #0000ff; stroke-linejoin: miter"/>
     <use xlink:href="#m88db25a07c" x="424.181694" y="354.870748" style="fill: #0000ff; stroke: #0000ff; stroke-linejoin: miter"/>
     <use xlink:href="#m88db25a07c" x="531.431446" y="321.925558" style="fill: #0000ff; stroke: #0000ff; stroke-linejoin: miter"/>
     <use xlink:href="#m88db25a07c" x="638.681198" y="352.494763" style="fill: #0000ff; stroke: #0000ff; stroke-linejoin: miter"/>
    </g>
   </g>
   <g id="line2d_29">
    <path d="M 102.432438 166.664642 
L 209.68219 139.216445 
L 316.931942 55.910947 
L 424.181694 69.347523 
L 531.431446 82.84988 
L 638.681198 60.154109 
" clip-path="url(#paf564e7d87)" style="fill: none; stroke-dasharray: 2,3.3; stroke-dashoffset: 0; stroke: #008800; stroke-width: 2"/>
    <defs>
     <path id="m09437c4ec1" d="M 0 -5 
L -5 5 
L 5 5 
z
" style="stroke: #008800; stroke-linejoin: miter"/>
    </defs>
    <g clip-path="url(#paf564e7d87)">
     <use xlink:href="#m09437c4ec1" x="102.432438" y="166.664642" style="fill-opacity: 0; stroke: #008800; stroke-linejoin: miter"/>
     <use xlink:href="#m09437c4ec1" x="209.68219" y="139.216445" style="fill-opacity: 0; stroke: #008800; stroke-linejoin: miter"/>
     <use xlink:href="#m09437c4ec1" x="316.931942" y="55.910947" style="fill-opacity: 0; stroke: #008800; stroke-linejoin: miter"/>
     <use xlink:href="#m09437c4ec1" x="424.181694" y="69.347523" style="fill-opacity: 0; stroke: #008800; stroke-linejoin: miter"/>
     <use xlink:href="#m09437c4ec1" x="531.431446" y="82.84988" style="fill-opacity: 0; stroke: #008800; stroke-linejoin: miter"/>
     <use xlink:href="#m09437c4ec1" x="638.681198" y="60.154109" style="fill-opacity: 0; stroke: #008800; stroke-linejoin: miter"/>
    </g>
   </g>
   <g id="line2d_30">
    <path d="M 102.432438 165.316324 
L 209.68219 134.413755 
L 316.931942 47.06645 
L 424.181694 82.519287 
L 531.431446 69.927111 
L 638.681198 64.493506 
" clip-path="url(#paf564e7d87)" style="fill: none; stroke-dasharray: 2,3.3; stroke-dashoffset: 0; stroke: #00ff00; stroke-width: 2"/>
    <defs>
     <path id="m34921c9fa6" d="M 0 -5 
L -5 5 
L 5 5 
z
" style="stroke: #00ff00; stroke-linejoin: miter"/>
    </defs>
    <g clip-path="url(#paf564e7d87)">
     <use xlink:href="#m34921c9fa6" x="102.432438" y="165.316324" style="fill: #00ff00; stroke: #00ff00; stroke-linejoin: miter"/>
     <use xlink:href="#m34921c9fa6" x="209.68219" y="134.413755" style="fill: #00ff00; stroke: #00ff00; stroke-linejoin: miter"/>
     <use xlink:href="#m34921c9fa6" x="316.931942" y="47.06645" style="fill: #00ff00; stroke: #00ff00; stroke-linejoin: miter"/>
     <use xlink:href="#m34921c9fa6" x="424.181694" y="82.519287" style="fill: #00ff00; stroke: #00ff00; stroke-linejoin: miter"/>
     <use xlink:href="#m34921c9fa6" x="531.431446" y="69.927111" style="fill: #00ff00; stroke: #00ff00; stroke-linejoin: miter"/>
     <use xlink:href="#m34921c9fa6" x="638.681198" y="64.493506" style="fill: #00ff00; stroke: #00ff00; stroke-linejoin: miter"/>
    </g>
   </g>
   <g id="line2d_31">
    <path d="M 102.432438 178.172884 
L 209.68219 341.540592 
L 316.931942 283.63333 
L 424.181694 333.666017 
L 531.431446 302.685525 
L 638.681198 332.429435 
" clip-path="url(#paf564e7d87)" style="fill: none; stroke-dasharray: 2,3.3; stroke-dashoffset: 0; stroke: #880000; stroke-width: 2"/>
    <defs>
     <path id="m4a54b51b88" d="M 0 -5 
L -1.12257 -1.545085 
L -4.755283 -1.545085 
L -1.816356 0.59017 
L -2.938926 4.045085 
L -0 1.90983 
L 2.938926 4.045085 
L 1.816356 0.59017 
L 4.755283 -1.545085 
L 1.12257 -1.545085 
z
" style="stroke: #880000; stroke-linejoin: bevel"/>
    </defs>
    <g clip-path="url(#paf564e7d87)">
     <use xlink:href="#m4a54b51b88" x="102.432438" y="178.172884" style="fill-opacity: 0; stroke: #880000; stroke-linejoin: bevel"/>
     <use xlink:href="#m4a54b51b88" x="209.68219" y="341.540592" style="fill-opacity: 0; stroke: #880000; stroke-linejoin: bevel"/>
     <use xlink:href="#m4a54b51b88" x="316.931942" y="283.63333" style="fill-opacity: 0; stroke: #880000; stroke-linejoin: bevel"/>
     <use xlink:href="#m4a54b51b88" x="424.181694" y="333.666017" style="fill-opacity: 0; stroke: #880000; stroke-linejoin: bevel"/>
     <use xlink:href="#m4a54b51b88" x="531.431446" y="302.685525" style="fill-opacity: 0; stroke: #880000; stroke-linejoin: bevel"/>
     <use xlink:href="#m4a54b51b88" x="638.681198" y="332.429435" style="fill-opacity: 0; stroke: #880000; stroke-linejoin: bevel"/>
    </g>
   </g>
   <g id="line2d_32">
    <path d="M 102.432438 175.33524 
L 209.68219 339.317204 
L 316.931942 282.127367 
L 424.181694 331.924645 
L 531.431446 300.938982 
L 638.681198 330.202877 
" clip-path="url(#paf564e7d87)" style="fill: none; stroke-dasharray: 2,3.3; stroke-dashoffset: 0; stroke: #ff0000; stroke-width: 2"/>
    <defs>
     <path id="mf20a8449ad" d="M 0 -5 
L -1.12257 -1.545085 
L -4.755283 -1.545085 
L -1.816356 0.59017 
L -2.938926 4.045085 
L -0 1.90983 
L 2.938926 4.045085 
L 1.816356 0.59017 
L 4.755283 -1.545085 
L 1.12257 -1.545085 
z
" style="stroke: #ff0000; stroke-linejoin: bevel"/>
    </defs>
    <g clip-path="url(#paf564e7d87)">
     <use xlink:href="#mf20a8449ad" x="102.432438" y="175.33524" style="fill: #ff0000; stroke: #ff0000; stroke-linejoin: bevel"/>
     <use xlink:href="#mf20a8449ad" x="209.68219" y="339.317204" style="fill: #ff0000; stroke: #ff0000; stroke-linejoin: bevel"/>
     <use xlink:href="#mf20a8449ad" x="316.931942" y="282.127367" style="fill: #ff0000; stroke: #ff0000; stroke-linejoin: bevel"/>
     <use xlink:href="#mf20a8449ad" x="424.181694" y="331.924645" style="fill: #ff0000; stroke: #ff0000; stroke-linejoin: bevel"/>
     <use xlink:href="#mf20a8449ad" x="531.431446" y="300.938982" style="fill: #ff0000; stroke: #ff0000; stroke-linejoin: bevel"/>
     <use xlink:href="#mf20a8449ad" x="638.681198" y="330.202877" style="fill: #ff0000; stroke: #ff0000; stroke-linejoin: bevel"/>
    </g>
   </g>
   <g id="patch_3">
    <path d="M 75.62 380.68 
L 75.62 11.974604 
" style="fill: none; stroke: #000000; stroke-width: 0.8; stroke-linejoin: miter; stroke-linecap: square"/>
   </g>
   <g id="patch_4">
    <path d="M 665.493636 380.68 
L 665.493636 11.974604 
" style="fill: none; stroke: #000000; stroke-width: 0.8; stroke-linejoin: miter; stroke-linecap: square"/>
   </g>
   <g id="patch_5">
    <path d="M 75.62 380.68 
L 665.493636 380.68 
" style="fill: none; stroke: #000000; stroke-width: 0.8; stroke-linejoin: miter; stroke-linecap: square"/>
   </g>
   <g id="patch_6">
    <path d="M 75.62 11.974604 
L 665.493636 11.974604 
" style="fill: none; stroke: #000000; stroke-width: 0.8; stroke-linejoin: miter; stroke-linecap: square"/>
   </g>
  </g>
  <g id="axes_2">
   <g id="table_1">
    <g id="patch_7">
     <path d="M 669.615955 52.941871 
L 753.181386 52.941871 
L 753.181386 11.974604 
L 669.615955 11.974604 
z
" style="fill: #ffffff; stroke: #000000; stroke-linejoin: miter"/>
    </g>
    <g id="text_15">
     <!-- Marker -->
     <g transform="translate(688.935077 36.045425) scale(0.13 -0.13)">
      <defs>
       <path id="DejaVuSans-4d" d="M 628 4666 
L 1569 4666 
L 2759 1491 
L 3956 4666 
L 4897 4666 
L 4897 0 
L 4281 0 
L 4281 4097 
L 3078 897 
L 2444 897 
L 1241 4097 
L 1241 0 
L 628 0 
L 628 4666 
z
" transform="scale(0.015625)"/>
       <path id="DejaVuSans-6b" d="M 581 4863 
L 1159 4863 
L 1159 1991 
L 2875 3500 
L 3609 3500 
L 1753 1863 
L 3688 0 
L 2938 0 
L 1159 1709 
L 1159 0 
L 581 0 
L 581 4863 
z
" transform="scale(0.015625)"/>
      </defs>
      <use xlink:href="#DejaVuSans-4d"/>
      <use xlink:href="#DejaVuSans-61" transform="translate(86.279297 0)"/>
      <use xlink:href="#DejaVuSans-72" transform="translate(147.558594 0)"/>
      <use xlink:href="#DejaVuSans-6b" transform="translate(188.671875 0)"/>
      <use xlink:href="#DejaVuSans-65" transform="translate(242.957031 0)"/>
      <use xlink:href="#DejaVuSans-72" transform="translate(304.480469 0)"/>
     </g>
    </g>
    <g id="patch_8">
     <path d="M 753.181386 52.941871 
L 836.746818 52.941871 
L 836.746818 11.974604 
L 753.181386 11.974604 
z
" style="fill: #ffffff; stroke: #000000; stroke-linejoin: miter"/>
    </g>
    <g id="text_16">
     <!-- Layout of A -->
     <g transform="translate(758.02379 36.045425) scale(0.13 -0.13)">
      <defs>
       <path id="DejaVuSans-4c" d="M 628 4666 
L 1259 4666 
L 1259 531 
L 3531 531 
L 3531 0 
L 628 0 
L 628 4666 
z
" transform="scale(0.015625)"/>
       <path id="DejaVuSans-79" d="M 2059 -325 
Q 1816 -950 1584 -1140 
Q 1353 -1331 966 -1331 
L 506 -1331 
L 506 -850 
L 844 -850 
Q 1081 -850 1212 -737 
Q 1344 -625 1503 -206 
L 1606 56 
L 191 3500 
L 800 3500 
L 1894 763 
L 2988 3500 
L 3597 3500 
L 2059 -325 
z
" transform="scale(0.015625)"/>
       <path id="DejaVuSans-41" d="M 2188 4044 
L 1331 1722 
L 3047 1722 
L 2188 4044 
z
M 1831 4666 
L 2547 4666 
L 4325 0 
L 3669 0 
L 3244 1197 
L 1141 1197 
L 716 0 
L 50 0 
L 1831 4666 
z
" transform="scale(0.015625)"/>
      </defs>
      <use xlink:href="#DejaVuSans-4c"/>
      <use xlink:href="#DejaVuSans-61" transform="translate(55.712891 0)"/>
      <use xlink:href="#DejaVuSans-79" transform="translate(116.992188 0)"/>
      <use xlink:href="#DejaVuSans-6f" transform="translate(176.171875 0)"/>
      <use xlink:href="#DejaVuSans-75" transform="translate(237.353516 0)"/>
      <use xlink:href="#DejaVuSans-74" transform="translate(300.732422 0)"/>
      <use xlink:href="#DejaVuSans-20" transform="translate(339.941406 0)"/>
      <use xlink:href="#DejaVuSans-6f" transform="translate(371.728516 0)"/>
      <use xlink:href="#DejaVuSans-66" transform="translate(432.910156 0)"/>
      <use xlink:href="#DejaVuSans-20" transform="translate(468.115234 0)"/>
      <use xlink:href="#DejaVuSans-41" transform="translate(499.902344 0)"/>
     </g>
    </g>
    <g id="patch_9">
     <path d="M 836.746818 52.941871 
L 920.31225 52.941871 
L 920.31225 11.974604 
L 836.746818 11.974604 
z
" style="fill: #ffffff; stroke: #000000; stroke-linejoin: miter"/>
    </g>
    <g id="text_17">
     <!-- Layout of B -->
     <g transform="translate(841.576018 36.045425) scale(0.13 -0.13)">
      <defs>
       <path id="DejaVuSans-42" d="M 1259 2228 
L 1259 519 
L 2272 519 
Q 2781 519 3026 730 
Q 3272 941 3272 1375 
Q 3272 1813 3026 2020 
Q 2781 2228 2272 2228 
L 1259 2228 
z
M 1259 4147 
L 1259 2741 
L 2194 2741 
Q 2656 2741 2882 2914 
Q 3109 3088 3109 3444 
Q 3109 3797 2882 3972 
Q 2656 4147 2194 4147 
L 1259 4147 
z
M 628 4666 
L 2241 4666 
Q 2963 4666 3353 4366 
Q 3744 4066 3744 3513 
Q 3744 3084 3544 2831 
Q 3344 2578 2956 2516 
Q 3422 2416 3680 2098 
Q 3938 1781 3938 1306 
Q 3938 681 3513 340 
Q 3088 0 2303 0 
L 628 0 
L 628 4666 
z
" transform="scale(0.015625)"/>
      </defs>
      <use xlink:href="#DejaVuSans-4c"/>
      <use xlink:href="#DejaVuSans-61" transform="translate(55.712891 0)"/>
      <use xlink:href="#DejaVuSans-79" transform="translate(116.992188 0)"/>
      <use xlink:href="#DejaVuSans-6f" transform="translate(176.171875 0)"/>
      <use xlink:href="#DejaVuSans-75" transform="translate(237.353516 0)"/>
      <use xlink:href="#DejaVuSans-74" transform="translate(300.732422 0)"/>
      <use xlink:href="#DejaVuSans-20" transform="translate(339.941406 0)"/>
      <use xlink:href="#DejaVuSans-6f" transform="translate(371.728516 0)"/>
      <use xlink:href="#DejaVuSans-66" transform="translate(432.910156 0)"/>
      <use xlink:href="#DejaVuSans-20" transform="translate(468.115234 0)"/>
      <use xlink:href="#DejaVuSans-42" transform="translate(499.902344 0)"/>
     </g>
    </g>
    <g id="patch_10">
     <path d="M 920.31225 52.941871 
L 1003.877682 52.941871 
L 1003.877682 11.974604 
L 920.31225 11.974604 
z
" style="fill: #ffffff; stroke: #000000; stroke-linejoin: miter"/>
    </g>
    <g id="text_18">
     <!-- Layout of C -->
     <g transform="translate(925.062232 36.045425) scale(0.13 -0.13)">
      <defs>
       <path id="DejaVuSans-43" d="M 4122 4306 
L 4122 3641 
Q 3803 3938 3442 4084 
Q 3081 4231 2675 4231 
Q 1875 4231 1450 3742 
Q 1025 3253 1025 2328 
Q 1025 1406 1450 917 
Q 1875 428 2675 428 
Q 3081 428 3442 575 
Q 3803 722 4122 1019 
L 4122 359 
Q 3791 134 3420 21 
Q 3050 -91 2638 -91 
Q 1578 -91 968 557 
Q 359 1206 359 2328 
Q 359 3453 968 4101 
Q 1578 4750 2638 4750 
Q 3056 4750 3426 4639 
Q 3797 4528 4122 4306 
z
" transform="scale(0.015625)"/>
      </defs>
      <use xlink:href="#DejaVuSans-4c"/>
      <use xlink:href="#DejaVuSans-61" transform="translate(55.712891 0)"/>
      <use xlink:href="#DejaVuSans-79" transform="translate(116.992188 0)"/>
      <use xlink:href="#DejaVuSans-6f" transform="translate(176.171875 0)"/>
      <use xlink:href="#DejaVuSans-75" transform="translate(237.353516 0)"/>
      <use xlink:href="#DejaVuSans-74" transform="translate(300.732422 0)"/>
      <use xlink:href="#DejaVuSans-20" transform="translate(339.941406 0)"/>
      <use xlink:href="#DejaVuSans-6f" transform="translate(371.728516 0)"/>
      <use xlink:href="#DejaVuSans-66" transform="translate(432.910156 0)"/>
      <use xlink:href="#DejaVuSans-20" transform="translate(468.115234 0)"/>
      <use xlink:href="#DejaVuSans-43" transform="translate(499.902344 0)"/>
     </g>
    </g>
    <g id="patch_11">
     <path d="M 669.615955 93.909137 
L 753.181386 93.909137 
L 753.181386 52.941871 
L 669.615955 52.941871 
z
" style="fill: #ffffff; stroke: #000000; stroke-linejoin: miter"/>
    </g>
    <g id="text_19">
     <!--  -->
     <g transform="translate(705.72742 77.012691) scale(0.13 -0.13)">
      <defs>
       <path id="DejaVuSans-25cb" d="M 1756 3459 
Q 716 2859 716 1662 
Q 716 466 1756 -134 
Q 2272 -434 2791 -434 
Q 3313 -434 3828 -134 
Q 4869 466 4869 1662 
Q 4869 2859 3828 3459 
Q 3313 3759 2791 3759 
Q 2272 3759 1756 3459 
z
M 1572 -450 
Q 350 256 350 1662 
Q 350 3069 1572 3775 
Q 2181 4128 2791 4128 
Q 3403 4128 4013 3775 
Q 5234 3069 5234 1662 
Q 5234 256 4013 -450 
Q 3403 -803 2791 -803 
Q 2181 -803 1572 -450 
z
" transform="scale(0.015625)"/>
      </defs>
      <use xlink:href="#DejaVuSans-25cb"/>
     </g>
    </g>
    <g id="patch_12">
     <path d="M 753.181386 93.909137 
L 836.746818 93.909137 
L 836.746818 52.941871 
L 753.181386 52.941871 
z
" style="fill: #ffffff; stroke: #000000; stroke-linejoin: miter"/>
    </g>
    <g id="text_20">
     <!-- Right -->
     <g transform="translate(777.847774 77.012691) scale(0.13 -0.13)">
      <defs>
       <path id="DejaVuSans-67" d="M 2906 1791 
Q 2906 2416 2648 2759 
Q 2391 3103 1925 3103 
Q 1463 3103 1205 2759 
Q 947 2416 947 1791 
Q 947 1169 1205 825 
Q 1463 481 1925 481 
Q 2391 481 2648 825 
Q 2906 1169 2906 1791 
z
M 3481 434 
Q 3481 -459 3084 -895 
Q 2688 -1331 1869 -1331 
Q 1566 -1331 1297 -1286 
Q 1028 -1241 775 -1147 
L 775 -588 
Q 1028 -725 1275 -790 
Q 1522 -856 1778 -856 
Q 2344 -856 2625 -561 
Q 2906 -266 2906 331 
L 2906 616 
Q 2728 306 2450 153 
Q 2172 0 1784 0 
Q 1141 0 747 490 
Q 353 981 353 1791 
Q 353 2603 747 3093 
Q 1141 3584 1784 3584 
Q 2172 3584 2450 3431 
Q 2728 3278 2906 2969 
L 2906 3500 
L 3481 3500 
L 3481 434 
z
" transform="scale(0.015625)"/>
      </defs>
      <use xlink:href="#DejaVuSans-52"/>
      <use xlink:href="#DejaVuSans-69" transform="translate(69.482422 0)"/>
      <use xlink:href="#DejaVuSans-67" transform="translate(97.265625 0)"/>
      <use xlink:href="#DejaVuSans-68" transform="translate(160.742188 0)"/>
      <use xlink:href="#DejaVuSans-74" transform="translate(224.121094 0)"/>
     </g>
    </g>
    <g id="patch_13">
     <path d="M 836.746818 93.909137 
L 920.31225 93.909137 
L 920.31225 52.941871 
L 836.746818 52.941871 
z
" style="fill: #ffffff; stroke: #000000; stroke-linejoin: miter"/>
    </g>
    <g id="text_21">
     <!-- Right -->
     <g transform="translate(861.413206 77.012691) scale(0.13 -0.13)">
      <use xlink:href="#DejaVuSans-52"/>
      <use xlink:href="#DejaVuSans-69" transform="translate(69.482422 0)"/>
      <use xlink:href="#DejaVuSans-67" transform="translate(97.265625 0)"/>
      <use xlink:href="#DejaVuSans-68" transform="translate(160.742188 0)"/>
      <use xlink:href="#DejaVuSans-74" transform="translate(224.121094 0)"/>
     </g>
    </g>
    <g id="patch_14">
     <path d="M 920.31225 93.909137 
L 1003.877682 93.909137 
L 1003.877682 52.941871 
L 920.31225 52.941871 
z
" style="fill: #ffffff; stroke: #000000; stroke-linejoin: miter"/>
    </g>
    <g id="text_22">
     <!-- Right -->
     <g transform="translate(944.978638 77.012691) scale(0.13 -0.13)">
      <use xlink:href="#DejaVuSans-52"/>
      <use xlink:href="#DejaVuSans-69" transform="translate(69.482422 0)"/>
      <use xlink:href="#DejaVuSans-67" transform="translate(97.265625 0)"/>
      <use xlink:href="#DejaVuSans-68" transform="translate(160.742188 0)"/>
      <use xlink:href="#DejaVuSans-74" transform="translate(224.121094 0)"/>
     </g>
    </g>
    <g id="patch_15">
     <path d="M 669.615955 134.876403 
L 753.181386 134.876403 
L 753.181386 93.909137 
L 669.615955 93.909137 
z
" style="fill: #ffffff; stroke: #000000; stroke-linejoin: miter"/>
    </g>
    <g id="text_23">
     <!--  -->
     <g style="fill: #555555" transform="translate(705.72742 117.979957) scale(0.13 -0.13)">
      <defs>
       <path id="DejaVuSans-25cf" d="M 350 1656 
Q 350 2309 678 2878 
Q 1003 3444 1572 3772 
Q 2138 4100 2794 4100 
Q 3447 4100 4013 3772 
Q 4581 3444 4906 2878 
Q 5234 2309 5234 1656 
Q 5234 1003 4906 434 
Q 4581 -131 4013 -459 
Q 3447 -788 2794 -788 
Q 2138 -788 1572 -459 
Q 1003 -131 678 434 
Q 350 1003 350 1656 
z
" transform="scale(0.015625)"/>
      </defs>
      <use xlink:href="#DejaVuSans-25cf"/>
     </g>
    </g>
    <g id="patch_16">
     <path d="M 753.181386 134.876403 
L 836.746818 134.876403 
L 836.746818 93.909137 
L 753.181386 93.909137 
z
" style="fill: #ffffff; stroke: #000000; stroke-linejoin: miter"/>
    </g>
    <g id="text_24">
     <!-- Right -->
     <g transform="translate(777.847774 117.979957) scale(0.13 -0.13)">
      <use xlink:href="#DejaVuSans-52"/>
      <use xlink:href="#DejaVuSans-69" transform="translate(69.482422 0)"/>
      <use xlink:href="#DejaVuSans-67" transform="translate(97.265625 0)"/>
      <use xlink:href="#DejaVuSans-68" transform="translate(160.742188 0)"/>
      <use xlink:href="#DejaVuSans-74" transform="translate(224.121094 0)"/>
     </g>
    </g>
    <g id="patch_17">
     <path d="M 836.746818 134.876403 
L 920.31225 134.876403 
L 920.31225 93.909137 
L 836.746818 93.909137 
z
" style="fill: #ffffff; stroke: #000000; stroke-linejoin: miter"/>
    </g>
    <g id="text_25">
     <!-- Right -->
     <g transform="translate(861.413206 117.979957) scale(0.13 -0.13)">
      <use xlink:href="#DejaVuSans-52"/>
      <use xlink:href="#DejaVuSans-69" transform="translate(69.482422 0)"/>
      <use xlink:href="#DejaVuSans-67" transform="translate(97.265625 0)"/>
      <use xlink:href="#DejaVuSans-68" transform="translate(160.742188 0)"/>
      <use xlink:href="#DejaVuSans-74" transform="translate(224.121094 0)"/>
     </g>
    </g>
    <g id="patch_18">
     <path d="M 920.31225 134.876403 
L 1003.877682 134.876403 
L 1003.877682 93.909137 
L 920.31225 93.909137 
z
" style="fill: #ffffff; stroke: #000000; stroke-linejoin: miter"/>
    </g>
    <g id="text_26">
     <!-- Left -->
     <g transform="translate(949.86481 117.979957) scale(0.13 -0.13)">
      <use xlink:href="#DejaVuSans-4c"/>
      <use xlink:href="#DejaVuSans-65" transform="translate(53.962891 0)"/>
      <use xlink:href="#DejaVuSans-66" transform="translate(115.486328 0)"/>
      <use xlink:href="#DejaVuSans-74" transform="translate(148.941406 0)"/>
     </g>
    </g>
    <g id="patch_19">
     <path d="M 669.615955 175.843669 
L 753.181386 175.843669 
L 753.181386 134.876403 
L 669.615955 134.876403 
z
" style="fill: #ffffff; stroke: #000000; stroke-linejoin: miter"/>
    </g>
    <g id="text_27">
     <!--  -->
     <g style="fill: #000088" transform="translate(705.257186 158.947224) scale(0.13 -0.13)">
      <defs>
       <path id="DejaVuSans-25a1" d="M 938 -431 
L 5109 -431 
L 5109 3756 
L 938 3756 
L 938 -431 
z
M 581 -788 
L 581 4113 
L 5466 4113 
L 5466 -788 
L 581 -788 
z
" transform="scale(0.015625)"/>
      </defs>
      <use xlink:href="#DejaVuSans-25a1"/>
     </g>
    </g>
    <g id="patch_20">
     <path d="M 753.181386 175.843669 
L 836.746818 175.843669 
L 836.746818 134.876403 
L 753.181386 134.876403 
z
" style="fill: #ffffff; stroke: #000000; stroke-linejoin: miter"/>
    </g>
    <g id="text_28">
     <!-- Right -->
     <g transform="translate(777.847774 158.947224) scale(0.13 -0.13)">
      <use xlink:href="#DejaVuSans-52"/>
      <use xlink:href="#DejaVuSans-69" transform="translate(69.482422 0)"/>
      <use xlink:href="#DejaVuSans-67" transform="translate(97.265625 0)"/>
      <use xlink:href="#DejaVuSans-68" transform="translate(160.742188 0)"/>
      <use xlink:href="#DejaVuSans-74" transform="translate(224.121094 0)"/>
     </g>
    </g>
    <g id="patch_21">
     <path d="M 836.746818 175.843669 
L 920.31225 175.843669 
L 920.31225 134.876403 
L 836.746818 134.876403 
z
" style="fill: #ffffff; stroke: #000000; stroke-linejoin: miter"/>
    </g>
    <g id="text_29">
     <!-- Left -->
     <g transform="translate(866.299378 158.947224) scale(0.13 -0.13)">
      <use xlink:href="#DejaVuSans-4c"/>
      <use xlink:href="#DejaVuSans-65" transform="translate(53.962891 0)"/>
      <use xlink:href="#DejaVuSans-66" transform="translate(115.486328 0)"/>
      <use xlink:href="#DejaVuSans-74" transform="translate(148.941406 0)"/>
     </g>
    </g>
    <g id="patch_22">
     <path d="M 920.31225 175.843669 
L 1003.877682 175.843669 
L 1003.877682 134.876403 
L 920.31225 134.876403 
z
" style="fill: #ffffff; stroke: #000000; stroke-linejoin: miter"/>
    </g>
    <g id="text_30">
     <!-- Right -->
     <g transform="translate(944.978638 158.947224) scale(0.13 -0.13)">
      <use xlink:href="#DejaVuSans-52"/>
      <use xlink:href="#DejaVuSans-69" transform="translate(69.482422 0)"/>
      <use xlink:href="#DejaVuSans-67" transform="translate(97.265625 0)"/>
      <use xlink:href="#DejaVuSans-68" transform="translate(160.742188 0)"/>
      <use xlink:href="#DejaVuSans-74" transform="translate(224.121094 0)"/>
     </g>
    </g>
    <g id="patch_23">
     <path d="M 669.615955 216.810935 
L 753.181386 216.810935 
L 753.181386 175.843669 
L 669.615955 175.843669 
z
" style="fill: #ffffff; stroke: #000000; stroke-linejoin: miter"/>
    </g>
    <g id="text_31">
     <!--  -->
     <g style="fill: #0000ff" transform="translate(705.257186 199.91449) scale(0.13 -0.13)">
      <defs>
       <path id="DejaVuSans-25a0" d="M 581 -788 
L 581 4113 
L 5466 4113 
L 5466 -788 
L 581 -788 
z
" transform="scale(0.015625)"/>
      </defs>
      <use xlink:href="#DejaVuSans-25a0"/>
     </g>
    </g>
    <g id="patch_24">
     <path d="M 753.181386 216.810935 
L 836.746818 216.810935 
L 836.746818 175.843669 
L 753.181386 175.843669 
z
" style="fill: #ffffff; stroke: #000000; stroke-linejoin: miter"/>
    </g>
    <g id="text_32">
     <!-- Right -->
     <g transform="translate(777.847774 199.91449) scale(0.13 -0.13)">
      <use xlink:href="#DejaVuSans-52"/>
      <use xlink:href="#DejaVuSans-69" transform="translate(69.482422 0)"/>
      <use xlink:href="#DejaVuSans-67" transform="translate(97.265625 0)"/>
      <use xlink:href="#DejaVuSans-68" transform="translate(160.742188 0)"/>
      <use xlink:href="#DejaVuSans-74" transform="translate(224.121094 0)"/>
     </g>
    </g>
    <g id="patch_25">
     <path d="M 836.746818 216.810935 
L 920.31225 216.810935 
L 920.31225 175.843669 
L 836.746818 175.843669 
z
" style="fill: #ffffff; stroke: #000000; stroke-linejoin: miter"/>
    </g>
    <g id="text_33">
     <!-- Left -->
     <g transform="translate(866.299378 199.91449) scale(0.13 -0.13)">
      <use xlink:href="#DejaVuSans-4c"/>
      <use xlink:href="#DejaVuSans-65" transform="translate(53.962891 0)"/>
      <use xlink:href="#DejaVuSans-66" transform="translate(115.486328 0)"/>
      <use xlink:href="#DejaVuSans-74" transform="translate(148.941406 0)"/>
     </g>
    </g>
    <g id="patch_26">
     <path d="M 920.31225 216.810935 
L 1003.877682 216.810935 
L 1003.877682 175.843669 
L 920.31225 175.843669 
z
" style="fill: #ffffff; stroke: #000000; stroke-linejoin: miter"/>
    </g>
    <g id="text_34">
     <!-- Left -->
     <g transform="translate(949.86481 199.91449) scale(0.13 -0.13)">
      <use xlink:href="#DejaVuSans-4c"/>
      <use xlink:href="#DejaVuSans-65" transform="translate(53.962891 0)"/>
      <use xlink:href="#DejaVuSans-66" transform="translate(115.486328 0)"/>
      <use xlink:href="#DejaVuSans-74" transform="translate(148.941406 0)"/>
     </g>
    </g>
    <g id="patch_27">
     <path d="M 669.615955 257.778201 
L 753.181386 257.778201 
L 753.181386 216.810935 
L 669.615955 216.810935 
z
" style="fill: #ffffff; stroke: #000000; stroke-linejoin: miter"/>
    </g>
    <g id="text_35">
     <!--  -->
     <g style="fill: #008800" transform="translate(706.399764 240.881756) scale(0.13 -0.13)">
      <defs>
       <path id="DejaVuSans-25b3" d="M 553 -431 
L 4369 -431 
L 2459 3400 
L 553 -431 
z
M 19 -788 
L 2459 4113 
L 4903 -788 
L 19 -788 
z
" transform="scale(0.015625)"/>
      </defs>
      <use xlink:href="#DejaVuSans-25b3"/>
     </g>
    </g>
    <g id="patch_28">
     <path d="M 753.181386 257.778201 
L 836.746818 257.778201 
L 836.746818 216.810935 
L 753.181386 216.810935 
z
" style="fill: #ffffff; stroke: #000000; stroke-linejoin: miter"/>
    </g>
    <g id="text_36">
     <!-- Left -->
     <g transform="translate(782.733946 240.881756) scale(0.13 -0.13)">
      <use xlink:href="#DejaVuSans-4c"/>
      <use xlink:href="#DejaVuSans-65" transform="translate(53.962891 0)"/>
      <use xlink:href="#DejaVuSans-66" transform="translate(115.486328 0)"/>
      <use xlink:href="#DejaVuSans-74" transform="translate(148.941406 0)"/>
     </g>
    </g>
    <g id="patch_29">
     <path d="M 836.746818 257.778201 
L 920.31225 257.778201 
L 920.31225 216.810935 
L 836.746818 216.810935 
z
" style="fill: #ffffff; stroke: #000000; stroke-linejoin: miter"/>
    </g>
    <g id="text_37">
     <!-- Right -->
     <g transform="translate(861.413206 240.881756) scale(0.13 -0.13)">
      <use xlink:href="#DejaVuSans-52"/>
      <use xlink:href="#DejaVuSans-69" transform="translate(69.482422 0)"/>
      <use xlink:href="#DejaVuSans-67" transform="translate(97.265625 0)"/>
      <use xlink:href="#DejaVuSans-68" transform="translate(160.742188 0)"/>
      <use xlink:href="#DejaVuSans-74" transform="translate(224.121094 0)"/>
     </g>
    </g>
    <g id="patch_30">
     <path d="M 920.31225 257.778201 
L 1003.877682 257.778201 
L 1003.877682 216.810935 
L 920.31225 216.810935 
z
" style="fill: #ffffff; stroke: #000000; stroke-linejoin: miter"/>
    </g>
    <g id="text_38">
     <!-- Right -->
     <g transform="translate(944.978638 240.881756) scale(0.13 -0.13)">
      <use xlink:href="#DejaVuSans-52"/>
      <use xlink:href="#DejaVuSans-69" transform="translate(69.482422 0)"/>
      <use xlink:href="#DejaVuSans-67" transform="translate(97.265625 0)"/>
      <use xlink:href="#DejaVuSans-68" transform="translate(160.742188 0)"/>
      <use xlink:href="#DejaVuSans-74" transform="translate(224.121094 0)"/>
     </g>
    </g>
    <g id="patch_31">
     <path d="M 669.615955 298.745468 
L 753.181386 298.745468 
L 753.181386 257.778201 
L 669.615955 257.778201 
z
" style="fill: #ffffff; stroke: #000000; stroke-linejoin: miter"/>
    </g>
    <g id="text_39">
     <!--  -->
     <g style="fill: #00ff00" transform="translate(706.399764 281.849022) scale(0.13 -0.13)">
      <defs>
       <path id="DejaVuSans-25b2" d="M 19 -788 
L 2459 4113 
L 4903 -788 
L 19 -788 
z
" transform="scale(0.015625)"/>
      </defs>
      <use xlink:href="#DejaVuSans-25b2"/>
     </g>
    </g>
    <g id="patch_32">
     <path d="M 753.181386 298.745468 
L 836.746818 298.745468 
L 836.746818 257.778201 
L 753.181386 257.778201 
z
" style="fill: #ffffff; stroke: #000000; stroke-linejoin: miter"/>
    </g>
    <g id="text_40">
     <!-- Left -->
     <g transform="translate(782.733946 281.849022) scale(0.13 -0.13)">
      <use xlink:href="#DejaVuSans-4c"/>
      <use xlink:href="#DejaVuSans-65" transform="translate(53.962891 0)"/>
      <use xlink:href="#DejaVuSans-66" transform="translate(115.486328 0)"/>
      <use xlink:href="#DejaVuSans-74" transform="translate(148.941406 0)"/>
     </g>
    </g>
    <g id="patch_33">
     <path d="M 836.746818 298.745468 
L 920.31225 298.745468 
L 920.31225 257.778201 
L 836.746818 257.778201 
z
" style="fill: #ffffff; stroke: #000000; stroke-linejoin: miter"/>
    </g>
    <g id="text_41">
     <!-- Right -->
     <g transform="translate(861.413206 281.849022) scale(0.13 -0.13)">
      <use xlink:href="#DejaVuSans-52"/>
      <use xlink:href="#DejaVuSans-69" transform="translate(69.482422 0)"/>
      <use xlink:href="#DejaVuSans-67" transform="translate(97.265625 0)"/>
      <use xlink:href="#DejaVuSans-68" transform="translate(160.742188 0)"/>
      <use xlink:href="#DejaVuSans-74" transform="translate(224.121094 0)"/>
     </g>
    </g>
    <g id="patch_34">
     <path d="M 920.31225 298.745468 
L 1003.877682 298.745468 
L 1003.877682 257.778201 
L 920.31225 257.778201 
z
" style="fill: #ffffff; stroke: #000000; stroke-linejoin: miter"/>
    </g>
    <g id="text_42">
     <!-- Left -->
     <g transform="translate(949.86481 281.849022) scale(0.13 -0.13)">
      <use xlink:href="#DejaVuSans-4c"/>
      <use xlink:href="#DejaVuSans-65" transform="translate(53.962891 0)"/>
      <use xlink:href="#DejaVuSans-66" transform="translate(115.486328 0)"/>
      <use xlink:href="#DejaVuSans-74" transform="translate(148.941406 0)"/>
     </g>
    </g>
    <g id="patch_35">
     <path d="M 669.615955 339.712734 
L 753.181386 339.712734 
L 753.181386 298.745468 
L 669.615955 298.745468 
z
" style="fill: #ffffff; stroke: #000000; stroke-linejoin: miter"/>
    </g>
    <g id="text_43">
     <!--  -->
     <g style="fill: #880000" transform="translate(705.571014 322.816288) scale(0.13 -0.13)">
      <defs>
       <path id="DejaVuSans-2606" d="M 416 2850 
L 2288 2850 
L 2869 4628 
L 3453 2850 
L 5322 2850 
L 3809 1747 
L 4391 -28 
L 2869 1072 
L 1350 -28 
L 1928 1747 
L 416 2850 
z
M 2141 1813 
L 1703 456 
L 2869 1294 
L 4069 413 
L 3594 1819 
L 4841 2694 
L 3322 2694 
L 2869 4066 
L 2425 2694 
L 900 2694 
L 2141 1813 
z
" transform="scale(0.015625)"/>
      </defs>
      <use xlink:href="#DejaVuSans-2606"/>
     </g>
    </g>
    <g id="patch_36">
     <path d="M 753.181386 339.712734 
L 836.746818 339.712734 
L 836.746818 298.745468 
L 753.181386 298.745468 
z
" style="fill: #ffffff; stroke: #000000; stroke-linejoin: miter"/>
    </g>
    <g id="text_44">
     <!-- Left -->
     <g transform="translate(782.733946 322.816288) scale(0.13 -0.13)">
      <use xlink:href="#DejaVuSans-4c"/>
      <use xlink:href="#DejaVuSans-65" transform="translate(53.962891 0)"/>
      <use xlink:href="#DejaVuSans-66" transform="translate(115.486328 0)"/>
      <use xlink:href="#DejaVuSans-74" transform="translate(148.941406 0)"/>
     </g>
    </g>
    <g id="patch_37">
     <path d="M 836.746818 339.712734 
L 920.31225 339.712734 
L 920.31225 298.745468 
L 836.746818 298.745468 
z
" style="fill: #ffffff; stroke: #000000; stroke-linejoin: miter"/>
    </g>
    <g id="text_45">
     <!-- Left -->
     <g transform="translate(866.299378 322.816288) scale(0.13 -0.13)">
      <use xlink:href="#DejaVuSans-4c"/>
      <use xlink:href="#DejaVuSans-65" transform="translate(53.962891 0)"/>
      <use xlink:href="#DejaVuSans-66" transform="translate(115.486328 0)"/>
      <use xlink:href="#DejaVuSans-74" transform="translate(148.941406 0)"/>
     </g>
    </g>
    <g id="patch_38">
     <path d="M 920.31225 339.712734 
L 1003.877682 339.712734 
L 1003.877682 298.745468 
L 920.31225 298.745468 
z
" style="fill: #ffffff; stroke: #000000; stroke-linejoin: miter"/>
    </g>
    <g id="text_46">
     <!-- Right -->
     <g transform="translate(944.978638 322.816288) scale(0.13 -0.13)">
      <use xlink:href="#DejaVuSans-52"/>
      <use xlink:href="#DejaVuSans-69" transform="translate(69.482422 0)"/>
      <use xlink:href="#DejaVuSans-67" transform="translate(97.265625 0)"/>
      <use xlink:href="#DejaVuSans-68" transform="translate(160.742188 0)"/>
      <use xlink:href="#DejaVuSans-74" transform="translate(224.121094 0)"/>
     </g>
    </g>
    <g id="patch_39">
     <path d="M 669.615955 380.68 
L 753.181386 380.68 
L 753.181386 339.712734 
L 669.615955 339.712734 
z
" style="fill: #ffffff; stroke: #000000; stroke-linejoin: miter"/>
    </g>
    <g id="text_47">
     <!--  -->
     <g style="fill: #ff0000" transform="translate(705.571014 363.783554) scale(0.13 -0.13)">
      <defs>
       <path id="DejaVuSans-2605" d="M 416 2850 
L 2288 2850 
L 2869 4628 
L 3453 2850 
L 5322 2850 
L 3809 1747 
L 4391 -28 
L 2869 1072 
L 1350 -28 
L 1928 1747 
L 416 2850 
z
" transform="scale(0.015625)"/>
      </defs>
      <use xlink:href="#DejaVuSans-2605"/>
     </g>
    </g>
    <g id="patch_40">
     <path d="M 753.181386 380.68 
L 836.746818 380.68 
L 836.746818 339.712734 
L 753.181386 339.712734 
z
" style="fill: #ffffff; stroke: #000000; stroke-linejoin: miter"/>
    </g>
    <g id="text_48">
     <!-- Left -->
     <g transform="translate(782.733946 363.783554) scale(0.13 -0.13)">
      <use xlink:href="#DejaVuSans-4c"/>
      <use xlink:href="#DejaVuSans-65" transform="translate(53.962891 0)"/>
      <use xlink:href="#DejaVuSans-66" transform="translate(115.486328 0)"/>
      <use xlink:href="#DejaVuSans-74" transform="translate(148.941406 0)"/>
     </g>
    </g>
    <g id="patch_41">
     <path d="M 836.746818 380.68 
L 920.31225 380.68 
L 920.31225 339.712734 
L 836.746818 339.712734 
z
" style="fill: #ffffff; stroke: #000000; stroke-linejoin: miter"/>
    </g>
    <g id="text_49">
     <!-- Left -->
     <g transform="translate(866.299378 363.783554) scale(0.13 -0.13)">
      <use xlink:href="#DejaVuSans-4c"/>
      <use xlink:href="#DejaVuSans-65" transform="translate(53.962891 0)"/>
      <use xlink:href="#DejaVuSans-66" transform="translate(115.486328 0)"/>
      <use xlink:href="#DejaVuSans-74" transform="translate(148.941406 0)"/>
     </g>
    </g>
    <g id="patch_42">
     <path d="M 920.31225 380.68 
L 1003.877682 380.68 
L 1003.877682 339.712734 
L 920.31225 339.712734 
z
" style="fill: #ffffff; stroke: #000000; stroke-linejoin: miter"/>
    </g>
    <g id="text_50">
     <!-- Left -->
     <g transform="translate(949.86481 363.783554) scale(0.13 -0.13)">
      <use xlink:href="#DejaVuSans-4c"/>
      <use xlink:href="#DejaVuSans-65" transform="translate(53.962891 0)"/>
      <use xlink:href="#DejaVuSans-66" transform="translate(115.486328 0)"/>
      <use xlink:href="#DejaVuSans-74" transform="translate(148.941406 0)"/>
     </g>
    </g>
   </g>
  </g>
 </g>
 <defs>
  <clipPath id="paf564e7d87">
   <rect x="75.62" y="11.974604" width="589.873636" height="368.705396"/>
  </clipPath>
 </defs>
</svg>
