<?xml version="1.0" encoding="utf-8" standalone="no"?>
<!DOCTYPE svg PUBLIC "-//W3C//DTD SVG 1.1//EN"
  "http://www.w3.org/Graphics/SVG/1.1/DTD/svg11.dtd">
<svg xmlns:xlink="http://www.w3.org/1999/xlink" width="607.15625pt" height="386.106562pt" viewBox="0 0 607.15625 386.106562" xmlns="http://www.w3.org/2000/svg" version="1.1">
 <metadata>
  <rdf:RDF xmlns:dc="http://purl.org/dc/elements/1.1/" xmlns:cc="http://creativecommons.org/ns#" xmlns:rdf="http://www.w3.org/1999/02/22-rdf-syntax-ns#">
   <cc:Work>
    <dc:type rdf:resource="http://purl.org/dc/dcmitype/StillImage"/>
    <dc:date>1980-01-01T00:00:00+00:00</dc:date>
    <dc:format>image/svg+xml</dc:format>
    <dc:creator>
     <cc:Agent>
      <dc:title>Matplotlib v3.10.1, https://matplotlib.org/</dc:title>
     </cc:Agent>
    </dc:creator>
   </cc:Work>
  </rdf:RDF>
 </metadata>
 <defs>
  <style type="text/css">*{stroke-linejoin: round; stroke-linecap: butt}</style>
 </defs>
 <g id="figure_1">
  <g id="patch_1">
   <path d="M 0 386.106562 
L 607.15625 386.106562 
L 607.15625 0 
L 0 0 
z
" style="fill: #ffffff"/>
  </g>
  <g id="axes_1">
   <g id="patch_2">
    <path d="M 41.95625 339.84 
L 599.95625 339.84 
L 599.95625 7.2 
L 41.95625 7.2 
z
" style="fill: #ffffff"/>
   </g>
   <g id="matplotlib.axis_1">
    <g id="xtick_1">
     <g id="line2d_1">
      <path d="M 41.95625 339.84 
L 41.95625 7.2 
" clip-path="url(#p5f002ac943)" style="fill: none; stroke: #b0b0b0; stroke-width: 0.8; stroke-linecap: square"/>
     </g>
     <g id="line2d_2">
      <defs>
       <path id="m91950e5950" d="M 0 0 
L 0 3.5 
" style="stroke: #000000; stroke-width: 0.8"/>
      </defs>
      <g>
       <use xlink:href="#m91950e5950" x="41.95625" y="339.84" style="stroke: #000000; stroke-width: 0.8"/>
      </g>
     </g>
     <g id="text_1">
      <!-- 0 -->
      <g transform="translate(37.820625 356.717969) scale(0.13 -0.13)">
       <defs>
        <path id="DejaVuSans-30" d="M 2034 4250 
Q 1547 4250 1301 3770 
Q 1056 3291 1056 2328 
Q 1056 1369 1301 889 
Q 1547 409 2034 409 
Q 2525 409 2770 889 
Q 3016 1369 3016 2328 
Q 3016 3291 2770 3770 
Q 2525 4250 2034 4250 
z
M 2034 4750 
Q 2819 4750 3233 4129 
Q 3647 3509 3647 2328 
Q 3647 1150 3233 529 
Q 2819 -91 2034 -91 
Q 1250 -91 836 529 
Q 422 1150 422 2328 
Q 422 3509 836 4129 
Q 1250 4750 2034 4750 
z
" transform="scale(0.015625)"/>
       </defs>
       <use xlink:href="#DejaVuSans-30"/>
      </g>
     </g>
    </g>
    <g id="xtick_2">
     <g id="line2d_3">
      <path d="M 127.802404 339.84 
L 127.802404 7.2 
" clip-path="url(#p5f002ac943)" style="fill: none; stroke: #b0b0b0; stroke-width: 0.8; stroke-linecap: square"/>
     </g>
     <g id="line2d_4">
      <g>
       <use xlink:href="#m91950e5950" x="127.802404" y="339.84" style="stroke: #000000; stroke-width: 0.8"/>
      </g>
     </g>
     <g id="text_2">
      <!-- 2 -->
      <g transform="translate(123.666779 356.717969) scale(0.13 -0.13)">
       <defs>
        <path id="DejaVuSans-32" d="M 1228 531 
L 3431 531 
L 3431 0 
L 469 0 
L 469 531 
Q 828 903 1448 1529 
Q 2069 2156 2228 2338 
Q 2531 2678 2651 2914 
Q 2772 3150 2772 3378 
Q 2772 3750 2511 3984 
Q 2250 4219 1831 4219 
Q 1534 4219 1204 4116 
Q 875 4013 500 3803 
L 500 4441 
Q 881 4594 1212 4672 
Q 1544 4750 1819 4750 
Q 2544 4750 2975 4387 
Q 3406 4025 3406 3419 
Q 3406 3131 3298 2873 
Q 3191 2616 2906 2266 
Q 2828 2175 2409 1742 
Q 1991 1309 1228 531 
z
" transform="scale(0.015625)"/>
       </defs>
       <use xlink:href="#DejaVuSans-32"/>
      </g>
     </g>
    </g>
    <g id="xtick_3">
     <g id="line2d_5">
      <path d="M 213.648558 339.84 
L 213.648558 7.2 
" clip-path="url(#p5f002ac943)" style="fill: none; stroke: #b0b0b0; stroke-width: 0.8; stroke-linecap: square"/>
     </g>
     <g id="line2d_6">
      <g>
       <use xlink:href="#m91950e5950" x="213.648558" y="339.84" style="stroke: #000000; stroke-width: 0.8"/>
      </g>
     </g>
     <g id="text_3">
      <!-- 4 -->
      <g transform="translate(209.512933 356.717969) scale(0.13 -0.13)">
       <defs>
        <path id="DejaVuSans-34" d="M 2419 4116 
L 825 1625 
L 2419 1625 
L 2419 4116 
z
M 2253 4666 
L 3047 4666 
L 3047 1625 
L 3713 1625 
L 3713 1100 
L 3047 1100 
L 3047 0 
L 2419 0 
L 2419 1100 
L 313 1100 
L 313 1709 
L 2253 4666 
z
" transform="scale(0.015625)"/>
       </defs>
       <use xlink:href="#DejaVuSans-34"/>
      </g>
     </g>
    </g>
    <g id="xtick_4">
     <g id="line2d_7">
      <path d="M 299.494712 339.84 
L 299.494712 7.2 
" clip-path="url(#p5f002ac943)" style="fill: none; stroke: #b0b0b0; stroke-width: 0.8; stroke-linecap: square"/>
     </g>
     <g id="line2d_8">
      <g>
       <use xlink:href="#m91950e5950" x="299.494712" y="339.84" style="stroke: #000000; stroke-width: 0.8"/>
      </g>
     </g>
     <g id="text_4">
      <!-- 6 -->
      <g transform="translate(295.359087 356.717969) scale(0.13 -0.13)">
       <defs>
        <path id="DejaVuSans-36" d="M 2113 2584 
Q 1688 2584 1439 2293 
Q 1191 2003 1191 1497 
Q 1191 994 1439 701 
Q 1688 409 2113 409 
Q 2538 409 2786 701 
Q 3034 994 3034 1497 
Q 3034 2003 2786 2293 
Q 2538 2584 2113 2584 
z
M 3366 4563 
L 3366 3988 
Q 3128 4100 2886 4159 
Q 2644 4219 2406 4219 
Q 1781 4219 1451 3797 
Q 1122 3375 1075 2522 
Q 1259 2794 1537 2939 
Q 1816 3084 2150 3084 
Q 2853 3084 3261 2657 
Q 3669 2231 3669 1497 
Q 3669 778 3244 343 
Q 2819 -91 2113 -91 
Q 1303 -91 875 529 
Q 447 1150 447 2328 
Q 447 3434 972 4092 
Q 1497 4750 2381 4750 
Q 2619 4750 2861 4703 
Q 3103 4656 3366 4563 
z
" transform="scale(0.015625)"/>
       </defs>
       <use xlink:href="#DejaVuSans-36"/>
      </g>
     </g>
    </g>
    <g id="xtick_5">
     <g id="line2d_9">
      <path d="M 385.340865 339.84 
L 385.340865 7.2 
" clip-path="url(#p5f002ac943)" style="fill: none; stroke: #b0b0b0; stroke-width: 0.8; stroke-linecap: square"/>
     </g>
     <g id="line2d_10">
      <g>
       <use xlink:href="#m91950e5950" x="385.340865" y="339.84" style="stroke: #000000; stroke-width: 0.8"/>
      </g>
     </g>
     <g id="text_5">
      <!-- 8 -->
      <g transform="translate(381.20524 356.717969) scale(0.13 -0.13)">
       <defs>
        <path id="DejaVuSans-38" d="M 2034 2216 
Q 1584 2216 1326 1975 
Q 1069 1734 1069 1313 
Q 1069 891 1326 650 
Q 1584 409 2034 409 
Q 2484 409 2743 651 
Q 3003 894 3003 1313 
Q 3003 1734 2745 1975 
Q 2488 2216 2034 2216 
z
M 1403 2484 
Q 997 2584 770 2862 
Q 544 3141 544 3541 
Q 544 4100 942 4425 
Q 1341 4750 2034 4750 
Q 2731 4750 3128 4425 
Q 3525 4100 3525 3541 
Q 3525 3141 3298 2862 
Q 3072 2584 2669 2484 
Q 3125 2378 3379 2068 
Q 3634 1759 3634 1313 
Q 3634 634 3220 271 
Q 2806 -91 2034 -91 
Q 1263 -91 848 271 
Q 434 634 434 1313 
Q 434 1759 690 2068 
Q 947 2378 1403 2484 
z
M 1172 3481 
Q 1172 3119 1398 2916 
Q 1625 2713 2034 2713 
Q 2441 2713 2670 2916 
Q 2900 3119 2900 3481 
Q 2900 3844 2670 4047 
Q 2441 4250 2034 4250 
Q 1625 4250 1398 4047 
Q 1172 3844 1172 3481 
z
" transform="scale(0.015625)"/>
       </defs>
       <use xlink:href="#DejaVuSans-38"/>
      </g>
     </g>
    </g>
    <g id="xtick_6">
     <g id="line2d_11">
      <path d="M 471.187019 339.84 
L 471.187019 7.2 
" clip-path="url(#p5f002ac943)" style="fill: none; stroke: #b0b0b0; stroke-width: 0.8; stroke-linecap: square"/>
     </g>
     <g id="line2d_12">
      <g>
       <use xlink:href="#m91950e5950" x="471.187019" y="339.84" style="stroke: #000000; stroke-width: 0.8"/>
      </g>
     </g>
     <g id="text_6">
      <!-- 10 -->
      <g transform="translate(462.915769 356.717969) scale(0.13 -0.13)">
       <defs>
        <path id="DejaVuSans-31" d="M 794 531 
L 1825 531 
L 1825 4091 
L 703 3866 
L 703 4441 
L 1819 4666 
L 2450 4666 
L 2450 531 
L 3481 531 
L 3481 0 
L 794 0 
L 794 531 
z
" transform="scale(0.015625)"/>
       </defs>
       <use xlink:href="#DejaVuSans-31"/>
       <use xlink:href="#DejaVuSans-30" transform="translate(63.623047 0)"/>
      </g>
     </g>
    </g>
    <g id="xtick_7">
     <g id="line2d_13">
      <path d="M 557.033173 339.84 
L 557.033173 7.2 
" clip-path="url(#p5f002ac943)" style="fill: none; stroke: #b0b0b0; stroke-width: 0.8; stroke-linecap: square"/>
     </g>
     <g id="line2d_14">
      <g>
       <use xlink:href="#m91950e5950" x="557.033173" y="339.84" style="stroke: #000000; stroke-width: 0.8"/>
      </g>
     </g>
     <g id="text_7">
      <!-- 12 -->
      <g transform="translate(548.761923 356.717969) scale(0.13 -0.13)">
       <use xlink:href="#DejaVuSans-31"/>
       <use xlink:href="#DejaVuSans-32" transform="translate(63.623047 0)"/>
      </g>
     </g>
    </g>
    <g id="text_8">
     <!-- Number of threads -->
     <g transform="translate(245.63625 375.579062) scale(0.16 -0.16)">
      <defs>
       <path id="DejaVuSans-4e" d="M 628 4666 
L 1478 4666 
L 3547 763 
L 3547 4666 
L 4159 4666 
L 4159 0 
L 3309 0 
L 1241 3903 
L 1241 0 
L 628 0 
L 628 4666 
z
" transform="scale(0.015625)"/>
       <path id="DejaVuSans-75" d="M 544 1381 
L 544 3500 
L 1119 3500 
L 1119 1403 
Q 1119 906 1312 657 
Q 1506 409 1894 409 
Q 2359 409 2629 706 
Q 2900 1003 2900 1516 
L 2900 3500 
L 3475 3500 
L 3475 0 
L 2900 0 
L 2900 538 
Q 2691 219 2414 64 
Q 2138 -91 1772 -91 
Q 1169 -91 856 284 
Q 544 659 544 1381 
z
M 1991 3584 
L 1991 3584 
z
" transform="scale(0.015625)"/>
       <path id="DejaVuSans-6d" d="M 3328 2828 
Q 3544 3216 3844 3400 
Q 4144 3584 4550 3584 
Q 5097 3584 5394 3201 
Q 5691 2819 5691 2113 
L 5691 0 
L 5113 0 
L 5113 2094 
Q 5113 2597 4934 2840 
Q 4756 3084 4391 3084 
Q 3944 3084 3684 2787 
Q 3425 2491 3425 1978 
L 3425 0 
L 2847 0 
L 2847 2094 
Q 2847 2600 2669 2842 
Q 2491 3084 2119 3084 
Q 1678 3084 1418 2786 
Q 1159 2488 1159 1978 
L 1159 0 
L 581 0 
L 581 3500 
L 1159 3500 
L 1159 2956 
Q 1356 3278 1631 3431 
Q 1906 3584 2284 3584 
Q 2666 3584 2933 3390 
Q 3200 3197 3328 2828 
z
" transform="scale(0.015625)"/>
       <path id="DejaVuSans-62" d="M 3116 1747 
Q 3116 2381 2855 2742 
Q 2594 3103 2138 3103 
Q 1681 3103 1420 2742 
Q 1159 2381 1159 1747 
Q 1159 1113 1420 752 
Q 1681 391 2138 391 
Q 2594 391 2855 752 
Q 3116 1113 3116 1747 
z
M 1159 2969 
Q 1341 3281 1617 3432 
Q 1894 3584 2278 3584 
Q 2916 3584 3314 3078 
Q 3713 2572 3713 1747 
Q 3713 922 3314 415 
Q 2916 -91 2278 -91 
Q 1894 -91 1617 61 
Q 1341 213 1159 525 
L 1159 0 
L 581 0 
L 581 4863 
L 1159 4863 
L 1159 2969 
z
" transform="scale(0.015625)"/>
       <path id="DejaVuSans-65" d="M 3597 1894 
L 3597 1613 
L 953 1613 
Q 991 1019 1311 708 
Q 1631 397 2203 397 
Q 2534 397 2845 478 
Q 3156 559 3463 722 
L 3463 178 
Q 3153 47 2828 -22 
Q 2503 -91 2169 -91 
Q 1331 -91 842 396 
Q 353 884 353 1716 
Q 353 2575 817 3079 
Q 1281 3584 2069 3584 
Q 2775 3584 3186 3129 
Q 3597 2675 3597 1894 
z
M 3022 2063 
Q 3016 2534 2758 2815 
Q 2500 3097 2075 3097 
Q 1594 3097 1305 2825 
Q 1016 2553 972 2059 
L 3022 2063 
z
" transform="scale(0.015625)"/>
       <path id="DejaVuSans-72" d="M 2631 2963 
Q 2534 3019 2420 3045 
Q 2306 3072 2169 3072 
Q 1681 3072 1420 2755 
Q 1159 2438 1159 1844 
L 1159 0 
L 581 0 
L 581 3500 
L 1159 3500 
L 1159 2956 
Q 1341 3275 1631 3429 
Q 1922 3584 2338 3584 
Q 2397 3584 2469 3576 
Q 2541 3569 2628 3553 
L 2631 2963 
z
" transform="scale(0.015625)"/>
       <path id="DejaVuSans-20" transform="scale(0.015625)"/>
       <path id="DejaVuSans-6f" d="M 1959 3097 
Q 1497 3097 1228 2736 
Q 959 2375 959 1747 
Q 959 1119 1226 758 
Q 1494 397 1959 397 
Q 2419 397 2687 759 
Q 2956 1122 2956 1747 
Q 2956 2369 2687 2733 
Q 2419 3097 1959 3097 
z
M 1959 3584 
Q 2709 3584 3137 3096 
Q 3566 2609 3566 1747 
Q 3566 888 3137 398 
Q 2709 -91 1959 -91 
Q 1206 -91 779 398 
Q 353 888 353 1747 
Q 353 2609 779 3096 
Q 1206 3584 1959 3584 
z
" transform="scale(0.015625)"/>
       <path id="DejaVuSans-66" d="M 2375 4863 
L 2375 4384 
L 1825 4384 
Q 1516 4384 1395 4259 
Q 1275 4134 1275 3809 
L 1275 3500 
L 2222 3500 
L 2222 3053 
L 1275 3053 
L 1275 0 
L 697 0 
L 697 3053 
L 147 3053 
L 147 3500 
L 697 3500 
L 697 3744 
Q 697 4328 969 4595 
Q 1241 4863 1831 4863 
L 2375 4863 
z
" transform="scale(0.015625)"/>
       <path id="DejaVuSans-74" d="M 1172 4494 
L 1172 3500 
L 2356 3500 
L 2356 3053 
L 1172 3053 
L 1172 1153 
Q 1172 725 1289 603 
Q 1406 481 1766 481 
L 2356 481 
L 2356 0 
L 1766 0 
Q 1100 0 847 248 
Q 594 497 594 1153 
L 594 3053 
L 172 3053 
L 172 3500 
L 594 3500 
L 594 4494 
L 1172 4494 
z
" transform="scale(0.015625)"/>
       <path id="DejaVuSans-68" d="M 3513 2113 
L 3513 0 
L 2938 0 
L 2938 2094 
Q 2938 2591 2744 2837 
Q 2550 3084 2163 3084 
Q 1697 3084 1428 2787 
Q 1159 2491 1159 1978 
L 1159 0 
L 581 0 
L 581 4863 
L 1159 4863 
L 1159 2956 
Q 1366 3272 1645 3428 
Q 1925 3584 2291 3584 
Q 2894 3584 3203 3211 
Q 3513 2838 3513 2113 
z
" transform="scale(0.015625)"/>
       <path id="DejaVuSans-61" d="M 2194 1759 
Q 1497 1759 1228 1600 
Q 959 1441 959 1056 
Q 959 750 1161 570 
Q 1363 391 1709 391 
Q 2188 391 2477 730 
Q 2766 1069 2766 1631 
L 2766 1759 
L 2194 1759 
z
M 3341 1997 
L 3341 0 
L 2766 0 
L 2766 531 
Q 2569 213 2275 61 
Q 1981 -91 1556 -91 
Q 1019 -91 701 211 
Q 384 513 384 1019 
Q 384 1609 779 1909 
Q 1175 2209 1959 2209 
L 2766 2209 
L 2766 2266 
Q 2766 2663 2505 2880 
Q 2244 3097 1772 3097 
Q 1472 3097 1187 3025 
Q 903 2953 641 2809 
L 641 3341 
Q 956 3463 1253 3523 
Q 1550 3584 1831 3584 
Q 2591 3584 2966 3190 
Q 3341 2797 3341 1997 
z
" transform="scale(0.015625)"/>
       <path id="DejaVuSans-64" d="M 2906 2969 
L 2906 4863 
L 3481 4863 
L 3481 0 
L 2906 0 
L 2906 525 
Q 2725 213 2448 61 
Q 2172 -91 1784 -91 
Q 1150 -91 751 415 
Q 353 922 353 1747 
Q 353 2572 751 3078 
Q 1150 3584 1784 3584 
Q 2172 3584 2448 3432 
Q 2725 3281 2906 2969 
z
M 947 1747 
Q 947 1113 1208 752 
Q 1469 391 1925 391 
Q 2381 391 2643 752 
Q 2906 1113 2906 1747 
Q 2906 2381 2643 2742 
Q 2381 3103 1925 3103 
Q 1469 3103 1208 2742 
Q 947 2381 947 1747 
z
" transform="scale(0.015625)"/>
       <path id="DejaVuSans-73" d="M 2834 3397 
L 2834 2853 
Q 2591 2978 2328 3040 
Q 2066 3103 1784 3103 
Q 1356 3103 1142 2972 
Q 928 2841 928 2578 
Q 928 2378 1081 2264 
Q 1234 2150 1697 2047 
L 1894 2003 
Q 2506 1872 2764 1633 
Q 3022 1394 3022 966 
Q 3022 478 2636 193 
Q 2250 -91 1575 -91 
Q 1294 -91 989 -36 
Q 684 19 347 128 
L 347 722 
Q 666 556 975 473 
Q 1284 391 1588 391 
Q 1994 391 2212 530 
Q 2431 669 2431 922 
Q 2431 1156 2273 1281 
Q 2116 1406 1581 1522 
L 1381 1569 
Q 847 1681 609 1914 
Q 372 2147 372 2553 
Q 372 3047 722 3315 
Q 1072 3584 1716 3584 
Q 2034 3584 2315 3537 
Q 2597 3491 2834 3397 
z
" transform="scale(0.015625)"/>
      </defs>
      <use xlink:href="#DejaVuSans-4e"/>
      <use xlink:href="#DejaVuSans-75" transform="translate(74.804688 0)"/>
      <use xlink:href="#DejaVuSans-6d" transform="translate(138.183594 0)"/>
      <use xlink:href="#DejaVuSans-62" transform="translate(235.595703 0)"/>
      <use xlink:href="#DejaVuSans-65" transform="translate(299.072266 0)"/>
      <use xlink:href="#DejaVuSans-72" transform="translate(360.595703 0)"/>
      <use xlink:href="#DejaVuSans-20" transform="translate(401.708984 0)"/>
      <use xlink:href="#DejaVuSans-6f" transform="translate(433.496094 0)"/>
      <use xlink:href="#DejaVuSans-66" transform="translate(494.677734 0)"/>
      <use xlink:href="#DejaVuSans-20" transform="translate(529.882812 0)"/>
      <use xlink:href="#DejaVuSans-74" transform="translate(561.669922 0)"/>
      <use xlink:href="#DejaVuSans-68" transform="translate(600.878906 0)"/>
      <use xlink:href="#DejaVuSans-72" transform="translate(664.257812 0)"/>
      <use xlink:href="#DejaVuSans-65" transform="translate(703.121094 0)"/>
      <use xlink:href="#DejaVuSans-61" transform="translate(764.644531 0)"/>
      <use xlink:href="#DejaVuSans-64" transform="translate(825.923828 0)"/>
      <use xlink:href="#DejaVuSans-73" transform="translate(889.400391 0)"/>
     </g>
    </g>
   </g>
   <g id="matplotlib.axis_2">
    <g id="ytick_1">
     <g id="line2d_15">
      <path d="M 41.95625 339.84 
L 599.95625 339.84 
" clip-path="url(#p5f002ac943)" style="fill: none; stroke: #b0b0b0; stroke-width: 0.8; stroke-linecap: square"/>
     </g>
     <g id="line2d_16">
      <defs>
       <path id="m577fb8a991" d="M 0 0 
L -3.5 0 
" style="stroke: #000000; stroke-width: 0.8"/>
      </defs>
      <g>
       <use xlink:href="#m577fb8a991" x="41.95625" y="339.84" style="stroke: #000000; stroke-width: 0.8"/>
      </g>
     </g>
     <g id="text_9">
      <!-- 0 -->
      <g transform="translate(26.685 344.778984) scale(0.13 -0.13)">
       <use xlink:href="#DejaVuSans-30"/>
      </g>
     </g>
    </g>
    <g id="ytick_2">
     <g id="line2d_17">
      <path d="M 41.95625 295.955296 
L 599.95625 295.955296 
" clip-path="url(#p5f002ac943)" style="fill: none; stroke: #b0b0b0; stroke-width: 0.8; stroke-linecap: square"/>
     </g>
     <g id="line2d_18">
      <g>
       <use xlink:href="#m577fb8a991" x="41.95625" y="295.955296" style="stroke: #000000; stroke-width: 0.8"/>
      </g>
     </g>
     <g id="text_10">
      <!-- 1 -->
      <g transform="translate(26.685 300.89428) scale(0.13 -0.13)">
       <use xlink:href="#DejaVuSans-31"/>
      </g>
     </g>
    </g>
    <g id="ytick_3">
     <g id="line2d_19">
      <path d="M 41.95625 252.070592 
L 599.95625 252.070592 
" clip-path="url(#p5f002ac943)" style="fill: none; stroke: #b0b0b0; stroke-width: 0.8; stroke-linecap: square"/>
     </g>
     <g id="line2d_20">
      <g>
       <use xlink:href="#m577fb8a991" x="41.95625" y="252.070592" style="stroke: #000000; stroke-width: 0.8"/>
      </g>
     </g>
     <g id="text_11">
      <!-- 2 -->
      <g transform="translate(26.685 257.009576) scale(0.13 -0.13)">
       <use xlink:href="#DejaVuSans-32"/>
      </g>
     </g>
    </g>
    <g id="ytick_4">
     <g id="line2d_21">
      <path d="M 41.95625 208.185888 
L 599.95625 208.185888 
" clip-path="url(#p5f002ac943)" style="fill: none; stroke: #b0b0b0; stroke-width: 0.8; stroke-linecap: square"/>
     </g>
     <g id="line2d_22">
      <g>
       <use xlink:href="#m577fb8a991" x="41.95625" y="208.185888" style="stroke: #000000; stroke-width: 0.8"/>
      </g>
     </g>
     <g id="text_12">
      <!-- 3 -->
      <g transform="translate(26.685 213.124872) scale(0.13 -0.13)">
       <defs>
        <path id="DejaVuSans-33" d="M 2597 2516 
Q 3050 2419 3304 2112 
Q 3559 1806 3559 1356 
Q 3559 666 3084 287 
Q 2609 -91 1734 -91 
Q 1441 -91 1130 -33 
Q 819 25 488 141 
L 488 750 
Q 750 597 1062 519 
Q 1375 441 1716 441 
Q 2309 441 2620 675 
Q 2931 909 2931 1356 
Q 2931 1769 2642 2001 
Q 2353 2234 1838 2234 
L 1294 2234 
L 1294 2753 
L 1863 2753 
Q 2328 2753 2575 2939 
Q 2822 3125 2822 3475 
Q 2822 3834 2567 4026 
Q 2313 4219 1838 4219 
Q 1578 4219 1281 4162 
Q 984 4106 628 3988 
L 628 4550 
Q 988 4650 1302 4700 
Q 1616 4750 1894 4750 
Q 2613 4750 3031 4423 
Q 3450 4097 3450 3541 
Q 3450 3153 3228 2886 
Q 3006 2619 2597 2516 
z
" transform="scale(0.015625)"/>
       </defs>
       <use xlink:href="#DejaVuSans-33"/>
      </g>
     </g>
    </g>
    <g id="ytick_5">
     <g id="line2d_23">
      <path d="M 41.95625 164.301184 
L 599.95625 164.301184 
" clip-path="url(#p5f002ac943)" style="fill: none; stroke: #b0b0b0; stroke-width: 0.8; stroke-linecap: square"/>
     </g>
     <g id="line2d_24">
      <g>
       <use xlink:href="#m577fb8a991" x="41.95625" y="164.301184" style="stroke: #000000; stroke-width: 0.8"/>
      </g>
     </g>
     <g id="text_13">
      <!-- 4 -->
      <g transform="translate(26.685 169.240169) scale(0.13 -0.13)">
       <use xlink:href="#DejaVuSans-34"/>
      </g>
     </g>
    </g>
    <g id="ytick_6">
     <g id="line2d_25">
      <path d="M 41.95625 120.41648 
L 599.95625 120.41648 
" clip-path="url(#p5f002ac943)" style="fill: none; stroke: #b0b0b0; stroke-width: 0.8; stroke-linecap: square"/>
     </g>
     <g id="line2d_26">
      <g>
       <use xlink:href="#m577fb8a991" x="41.95625" y="120.41648" style="stroke: #000000; stroke-width: 0.8"/>
      </g>
     </g>
     <g id="text_14">
      <!-- 5 -->
      <g transform="translate(26.685 125.355465) scale(0.13 -0.13)">
       <defs>
        <path id="DejaVuSans-35" d="M 691 4666 
L 3169 4666 
L 3169 4134 
L 1269 4134 
L 1269 2991 
Q 1406 3038 1543 3061 
Q 1681 3084 1819 3084 
Q 2600 3084 3056 2656 
Q 3513 2228 3513 1497 
Q 3513 744 3044 326 
Q 2575 -91 1722 -91 
Q 1428 -91 1123 -41 
Q 819 9 494 109 
L 494 744 
Q 775 591 1075 516 
Q 1375 441 1709 441 
Q 2250 441 2565 725 
Q 2881 1009 2881 1497 
Q 2881 1984 2565 2268 
Q 2250 2553 1709 2553 
Q 1456 2553 1204 2497 
Q 953 2441 691 2322 
L 691 4666 
z
" transform="scale(0.015625)"/>
       </defs>
       <use xlink:href="#DejaVuSans-35"/>
      </g>
     </g>
    </g>
    <g id="ytick_7">
     <g id="line2d_27">
      <path d="M 41.95625 76.531776 
L 599.95625 76.531776 
" clip-path="url(#p5f002ac943)" style="fill: none; stroke: #b0b0b0; stroke-width: 0.8; stroke-linecap: square"/>
     </g>
     <g id="line2d_28">
      <g>
       <use xlink:href="#m577fb8a991" x="41.95625" y="76.531776" style="stroke: #000000; stroke-width: 0.8"/>
      </g>
     </g>
     <g id="text_15">
      <!-- 6 -->
      <g transform="translate(26.685 81.470761) scale(0.13 -0.13)">
       <use xlink:href="#DejaVuSans-36"/>
      </g>
     </g>
    </g>
    <g id="ytick_8">
     <g id="line2d_29">
      <path d="M 41.95625 32.647072 
L 599.95625 32.647072 
" clip-path="url(#p5f002ac943)" style="fill: none; stroke: #b0b0b0; stroke-width: 0.8; stroke-linecap: square"/>
     </g>
     <g id="line2d_30">
      <g>
       <use xlink:href="#m577fb8a991" x="41.95625" y="32.647072" style="stroke: #000000; stroke-width: 0.8"/>
      </g>
     </g>
     <g id="text_16">
      <!-- 7 -->
      <g transform="translate(26.685 37.586057) scale(0.13 -0.13)">
       <defs>
        <path id="DejaVuSans-37" d="M 525 4666 
L 3525 4666 
L 3525 4397 
L 1831 0 
L 1172 0 
L 2766 4134 
L 525 4134 
L 525 4666 
z
" transform="scale(0.015625)"/>
       </defs>
       <use xlink:href="#DejaVuSans-37"/>
      </g>
     </g>
    </g>
    <g id="text_17">
     <!-- Runtime (s) -->
     <g transform="translate(19.3575 219.885) rotate(-90) scale(0.16 -0.16)">
      <defs>
       <path id="DejaVuSans-52" d="M 2841 2188 
Q 3044 2119 3236 1894 
Q 3428 1669 3622 1275 
L 4263 0 
L 3584 0 
L 2988 1197 
Q 2756 1666 2539 1819 
Q 2322 1972 1947 1972 
L 1259 1972 
L 1259 0 
L 628 0 
L 628 4666 
L 2053 4666 
Q 2853 4666 3247 4331 
Q 3641 3997 3641 3322 
Q 3641 2881 3436 2590 
Q 3231 2300 2841 2188 
z
M 1259 4147 
L 1259 2491 
L 2053 2491 
Q 2509 2491 2742 2702 
Q 2975 2913 2975 3322 
Q 2975 3731 2742 3939 
Q 2509 4147 2053 4147 
L 1259 4147 
z
" transform="scale(0.015625)"/>
       <path id="DejaVuSans-6e" d="M 3513 2113 
L 3513 0 
L 2938 0 
L 2938 2094 
Q 2938 2591 2744 2837 
Q 2550 3084 2163 3084 
Q 1697 3084 1428 2787 
Q 1159 2491 1159 1978 
L 1159 0 
L 581 0 
L 581 3500 
L 1159 3500 
L 1159 2956 
Q 1366 3272 1645 3428 
Q 1925 3584 2291 3584 
Q 2894 3584 3203 3211 
Q 3513 2838 3513 2113 
z
" transform="scale(0.015625)"/>
       <path id="DejaVuSans-69" d="M 603 3500 
L 1178 3500 
L 1178 0 
L 603 0 
L 603 3500 
z
M 603 4863 
L 1178 4863 
L 1178 4134 
L 603 4134 
L 603 4863 
z
" transform="scale(0.015625)"/>
       <path id="DejaVuSans-28" d="M 1984 4856 
Q 1566 4138 1362 3434 
Q 1159 2731 1159 2009 
Q 1159 1288 1364 580 
Q 1569 -128 1984 -844 
L 1484 -844 
Q 1016 -109 783 600 
Q 550 1309 550 2009 
Q 550 2706 781 3412 
Q 1013 4119 1484 4856 
L 1984 4856 
z
" transform="scale(0.015625)"/>
       <path id="DejaVuSans-29" d="M 513 4856 
L 1013 4856 
Q 1481 4119 1714 3412 
Q 1947 2706 1947 2009 
Q 1947 1309 1714 600 
Q 1481 -109 1013 -844 
L 513 -844 
Q 928 -128 1133 580 
Q 1338 1288 1338 2009 
Q 1338 2731 1133 3434 
Q 928 4138 513 4856 
z
" transform="scale(0.015625)"/>
      </defs>
      <use xlink:href="#DejaVuSans-52"/>
      <use xlink:href="#DejaVuSans-75" transform="translate(64.982422 0)"/>
      <use xlink:href="#DejaVuSans-6e" transform="translate(128.361328 0)"/>
      <use xlink:href="#DejaVuSans-74" transform="translate(191.740234 0)"/>
      <use xlink:href="#DejaVuSans-69" transform="translate(230.949219 0)"/>
      <use xlink:href="#DejaVuSans-6d" transform="translate(258.732422 0)"/>
      <use xlink:href="#DejaVuSans-65" transform="translate(356.144531 0)"/>
      <use xlink:href="#DejaVuSans-20" transform="translate(417.667969 0)"/>
      <use xlink:href="#DejaVuSans-28" transform="translate(449.455078 0)"/>
      <use xlink:href="#DejaVuSans-73" transform="translate(488.46875 0)"/>
      <use xlink:href="#DejaVuSans-29" transform="translate(540.568359 0)"/>
     </g>
    </g>
   </g>
   <g id="LineCollection_1">
    <path d="M 84.879327 63.182794 
L 84.879327 57.728971 
" clip-path="url(#p5f002ac943)" style="fill: none; stroke: #880000; stroke-width: 1.5"/>
    <path d="M 127.802404 203.90142 
L 127.802404 202.826962 
" clip-path="url(#p5f002ac943)" style="fill: none; stroke: #880000; stroke-width: 1.5"/>
    <path d="M 170.725481 250.034647 
L 170.725481 248.857722 
" clip-path="url(#p5f002ac943)" style="fill: none; stroke: #880000; stroke-width: 1.5"/>
    <path d="M 213.648558 259.236501 
L 213.648558 256.895516 
" clip-path="url(#p5f002ac943)" style="fill: none; stroke: #880000; stroke-width: 1.5"/>
    <path d="M 256.571635 268.748802 
L 256.571635 266.773093 
" clip-path="url(#p5f002ac943)" style="fill: none; stroke: #880000; stroke-width: 1.5"/>
    <path d="M 299.494712 275.293475 
L 299.494712 273.951509 
" clip-path="url(#p5f002ac943)" style="fill: none; stroke: #880000; stroke-width: 1.5"/>
    <path d="M 342.417788 282.791925 
L 342.417788 281.449207 
" clip-path="url(#p5f002ac943)" style="fill: none; stroke: #880000; stroke-width: 1.5"/>
    <path d="M 385.340865 288.495156 
L 385.340865 287.921375 
" clip-path="url(#p5f002ac943)" style="fill: none; stroke: #880000; stroke-width: 1.5"/>
    <path d="M 428.263942 293.980455 
L 428.263942 293.930163 
" clip-path="url(#p5f002ac943)" style="fill: none; stroke: #880000; stroke-width: 1.5"/>
    <path d="M 471.187019 297.329754 
L 471.187019 296.308786 
" clip-path="url(#p5f002ac943)" style="fill: none; stroke: #880000; stroke-width: 1.5"/>
    <path d="M 514.110096 299.139956 
L 514.110096 297.779494 
" clip-path="url(#p5f002ac943)" style="fill: none; stroke: #880000; stroke-width: 1.5"/>
    <path d="M 557.033173 300.977407 
L 557.033173 299.310416 
" clip-path="url(#p5f002ac943)" style="fill: none; stroke: #880000; stroke-width: 1.5"/>
   </g>
   <g id="LineCollection_2">
    <path d="M 84.879327 78.551628 
L 84.879327 71.746007 
" clip-path="url(#p5f002ac943)" style="fill: none; stroke: #ff0000; stroke-width: 1.5"/>
    <path d="M 127.802404 205.266577 
L 127.802404 205.016477 
" clip-path="url(#p5f002ac943)" style="fill: none; stroke: #ff0000; stroke-width: 1.5"/>
    <path d="M 170.725481 250.371142 
L 170.725481 248.527306 
" clip-path="url(#p5f002ac943)" style="fill: none; stroke: #ff0000; stroke-width: 1.5"/>
    <path d="M 213.648558 260.924264 
L 213.648558 260.788352 
" clip-path="url(#p5f002ac943)" style="fill: none; stroke: #ff0000; stroke-width: 1.5"/>
    <path d="M 256.571635 269.657954 
L 256.571635 268.634788 
" clip-path="url(#p5f002ac943)" style="fill: none; stroke: #ff0000; stroke-width: 1.5"/>
    <path d="M 299.494712 276.880693 
L 299.494712 275.996171 
" clip-path="url(#p5f002ac943)" style="fill: none; stroke: #ff0000; stroke-width: 1.5"/>
    <path d="M 342.417788 282.92948 
L 342.417788 282.68556 
" clip-path="url(#p5f002ac943)" style="fill: none; stroke: #ff0000; stroke-width: 1.5"/>
    <path d="M 385.340865 286.898587 
L 385.340865 286.674058 
" clip-path="url(#p5f002ac943)" style="fill: none; stroke: #ff0000; stroke-width: 1.5"/>
    <path d="M 428.263942 294.768961 
L 428.263942 294.271808 
" clip-path="url(#p5f002ac943)" style="fill: none; stroke: #ff0000; stroke-width: 1.5"/>
    <path d="M 471.187019 298.165363 
L 471.187019 296.924434 
" clip-path="url(#p5f002ac943)" style="fill: none; stroke: #ff0000; stroke-width: 1.5"/>
    <path d="M 514.110096 302.025195 
L 514.110096 300.17449 
" clip-path="url(#p5f002ac943)" style="fill: none; stroke: #ff0000; stroke-width: 1.5"/>
    <path d="M 557.033173 299.343688 
L 557.033173 296.0195 
" clip-path="url(#p5f002ac943)" style="fill: none; stroke: #ff0000; stroke-width: 1.5"/>
   </g>
   <g id="LineCollection_3">
    <path d="M 84.879327 74.4723 
L 84.879327 73.630793 
" clip-path="url(#p5f002ac943)" style="fill: none; stroke: #000088; stroke-width: 1.5"/>
    <path d="M 127.802404 206.638766 
L 127.802404 205.901236 
" clip-path="url(#p5f002ac943)" style="fill: none; stroke: #000088; stroke-width: 1.5"/>
    <path d="M 170.725481 250.824929 
L 170.725481 250.161457 
" clip-path="url(#p5f002ac943)" style="fill: none; stroke: #000088; stroke-width: 1.5"/>
    <path d="M 213.648558 258.260378 
L 213.648558 258.197797 
" clip-path="url(#p5f002ac943)" style="fill: none; stroke: #000088; stroke-width: 1.5"/>
    <path d="M 256.571635 269.165896 
L 256.571635 269.036703 
" clip-path="url(#p5f002ac943)" style="fill: none; stroke: #000088; stroke-width: 1.5"/>
    <path d="M 299.494712 278.218244 
L 299.494712 276.879686 
" clip-path="url(#p5f002ac943)" style="fill: none; stroke: #000088; stroke-width: 1.5"/>
    <path d="M 342.417788 286.346178 
L 342.417788 283.710079 
" clip-path="url(#p5f002ac943)" style="fill: none; stroke: #000088; stroke-width: 1.5"/>
    <path d="M 385.340865 289.708251 
L 385.340865 289.696093 
" clip-path="url(#p5f002ac943)" style="fill: none; stroke: #000088; stroke-width: 1.5"/>
    <path d="M 428.263942 297.250627 
L 428.263942 292.642833 
" clip-path="url(#p5f002ac943)" style="fill: none; stroke: #000088; stroke-width: 1.5"/>
    <path d="M 471.187019 292.374928 
L 471.187019 291.159094 
" clip-path="url(#p5f002ac943)" style="fill: none; stroke: #000088; stroke-width: 1.5"/>
    <path d="M 514.110096 298.814046 
L 514.110096 298.333893 
" clip-path="url(#p5f002ac943)" style="fill: none; stroke: #000088; stroke-width: 1.5"/>
    <path d="M 557.033173 300.738576 
L 557.033173 294.40258 
" clip-path="url(#p5f002ac943)" style="fill: none; stroke: #000088; stroke-width: 1.5"/>
   </g>
   <g id="LineCollection_4">
    <path d="M 84.879327 75.858705 
L 84.879327 74.190709 
" clip-path="url(#p5f002ac943)" style="fill: none; stroke: #0000ff; stroke-width: 1.5"/>
    <path d="M 127.802404 204.997203 
L 127.802404 204.773602 
" clip-path="url(#p5f002ac943)" style="fill: none; stroke: #0000ff; stroke-width: 1.5"/>
    <path d="M 170.725481 250.282733 
L 170.725481 250.061087 
" clip-path="url(#p5f002ac943)" style="fill: none; stroke: #0000ff; stroke-width: 1.5"/>
    <path d="M 213.648558 256.8499 
L 213.648558 254.937781 
" clip-path="url(#p5f002ac943)" style="fill: none; stroke: #0000ff; stroke-width: 1.5"/>
    <path d="M 256.571635 268.798659 
L 256.571635 267.620574 
" clip-path="url(#p5f002ac943)" style="fill: none; stroke: #0000ff; stroke-width: 1.5"/>
    <path d="M 299.494712 274.354984 
L 299.494712 274.161369 
" clip-path="url(#p5f002ac943)" style="fill: none; stroke: #0000ff; stroke-width: 1.5"/>
    <path d="M 342.417788 284.541764 
L 342.417788 283.313335 
" clip-path="url(#p5f002ac943)" style="fill: none; stroke: #0000ff; stroke-width: 1.5"/>
    <path d="M 385.340865 289.01723 
L 385.340865 288.339381 
" clip-path="url(#p5f002ac943)" style="fill: none; stroke: #0000ff; stroke-width: 1.5"/>
    <path d="M 428.263942 294.173891 
L 428.263942 293.981547 
" clip-path="url(#p5f002ac943)" style="fill: none; stroke: #0000ff; stroke-width: 1.5"/>
    <path d="M 471.187019 294.065066 
L 471.187019 293.593892 
" clip-path="url(#p5f002ac943)" style="fill: none; stroke: #0000ff; stroke-width: 1.5"/>
    <path d="M 514.110096 299.496396 
L 514.110096 298.506369 
" clip-path="url(#p5f002ac943)" style="fill: none; stroke: #0000ff; stroke-width: 1.5"/>
    <path d="M 557.033173 298.108574 
L 557.033173 297.315035 
" clip-path="url(#p5f002ac943)" style="fill: none; stroke: #0000ff; stroke-width: 1.5"/>
   </g>
   <g id="LineCollection_5">
    <path d="M 84.879327 76.679424 
L 84.879327 76.148782 
" clip-path="url(#p5f002ac943)" style="fill: none; stroke: #008800; stroke-width: 1.5"/>
    <path d="M 127.802404 204.430019 
L 127.802404 204.329094 
" clip-path="url(#p5f002ac943)" style="fill: none; stroke: #008800; stroke-width: 1.5"/>
    <path d="M 170.725481 244.68073 
L 170.725481 244.218991 
" clip-path="url(#p5f002ac943)" style="fill: none; stroke: #008800; stroke-width: 1.5"/>
    <path d="M 213.648558 256.715518 
L 213.648558 254.77953 
" clip-path="url(#p5f002ac943)" style="fill: none; stroke: #008800; stroke-width: 1.5"/>
    <path d="M 256.571635 263.44209 
L 256.571635 262.966514 
" clip-path="url(#p5f002ac943)" style="fill: none; stroke: #008800; stroke-width: 1.5"/>
    <path d="M 299.494712 270.083324 
L 299.494712 269.567441 
" clip-path="url(#p5f002ac943)" style="fill: none; stroke: #008800; stroke-width: 1.5"/>
    <path d="M 342.417788 278.617864 
L 342.417788 275.925567 
" clip-path="url(#p5f002ac943)" style="fill: none; stroke: #008800; stroke-width: 1.5"/>
    <path d="M 385.340865 289.50968 
L 385.340865 287.950921 
" clip-path="url(#p5f002ac943)" style="fill: none; stroke: #008800; stroke-width: 1.5"/>
    <path d="M 428.263942 289.619577 
L 428.263942 289.472959 
" clip-path="url(#p5f002ac943)" style="fill: none; stroke: #008800; stroke-width: 1.5"/>
    <path d="M 471.187019 290.262123 
L 471.187019 288.088457 
" clip-path="url(#p5f002ac943)" style="fill: none; stroke: #008800; stroke-width: 1.5"/>
    <path d="M 514.110096 290.267702 
L 514.110096 289.511772 
" clip-path="url(#p5f002ac943)" style="fill: none; stroke: #008800; stroke-width: 1.5"/>
    <path d="M 557.033173 301.183175 
L 557.033173 297.747968 
" clip-path="url(#p5f002ac943)" style="fill: none; stroke: #008800; stroke-width: 1.5"/>
   </g>
   <g id="LineCollection_6">
    <path d="M 84.879327 74.957347 
L 84.879327 72.489077 
" clip-path="url(#p5f002ac943)" style="fill: none; stroke: #00ff00; stroke-width: 1.5"/>
    <path d="M 127.802404 205.667994 
L 127.802404 204.537724 
" clip-path="url(#p5f002ac943)" style="fill: none; stroke: #00ff00; stroke-width: 1.5"/>
    <path d="M 170.725481 236.3506 
L 170.725481 235.952734 
" clip-path="url(#p5f002ac943)" style="fill: none; stroke: #00ff00; stroke-width: 1.5"/>
    <path d="M 213.648558 253.116288 
L 213.648558 252.767122 
" clip-path="url(#p5f002ac943)" style="fill: none; stroke: #00ff00; stroke-width: 1.5"/>
    <path d="M 256.571635 255.350399 
L 256.571635 254.375522 
" clip-path="url(#p5f002ac943)" style="fill: none; stroke: #00ff00; stroke-width: 1.5"/>
    <path d="M 299.494712 269.473668 
L 299.494712 268.638827 
" clip-path="url(#p5f002ac943)" style="fill: none; stroke: #00ff00; stroke-width: 1.5"/>
    <path d="M 342.417788 268.727652 
L 342.417788 267.655974 
" clip-path="url(#p5f002ac943)" style="fill: none; stroke: #00ff00; stroke-width: 1.5"/>
    <path d="M 385.340865 287.337674 
L 385.340865 284.905815 
" clip-path="url(#p5f002ac943)" style="fill: none; stroke: #00ff00; stroke-width: 1.5"/>
    <path d="M 428.263942 288.817227 
L 428.263942 288.722541 
" clip-path="url(#p5f002ac943)" style="fill: none; stroke: #00ff00; stroke-width: 1.5"/>
    <path d="M 471.187019 289.990706 
L 471.187019 284.363979 
" clip-path="url(#p5f002ac943)" style="fill: none; stroke: #00ff00; stroke-width: 1.5"/>
    <path d="M 514.110096 289.487568 
L 514.110096 288.192176 
" clip-path="url(#p5f002ac943)" style="fill: none; stroke: #00ff00; stroke-width: 1.5"/>
    <path d="M 557.033173 298.782105 
L 557.033173 262.274303 
" clip-path="url(#p5f002ac943)" style="fill: none; stroke: #00ff00; stroke-width: 1.5"/>
   </g>
   <g id="LineCollection_7">
    <path d="M 84.879327 41.572018 
L 84.879327 38.817339 
" clip-path="url(#p5f002ac943)" style="fill: none; stroke: #000000; stroke-width: 1.5"/>
    <path d="M 127.802404 192.4688 
L 127.802404 186.099449 
" clip-path="url(#p5f002ac943)" style="fill: none; stroke: #000000; stroke-width: 1.5"/>
    <path d="M 170.725481 236.978224 
L 170.725481 233.40839 
" clip-path="url(#p5f002ac943)" style="fill: none; stroke: #000000; stroke-width: 1.5"/>
    <path d="M 213.648558 262.868893 
L 213.648558 255.133823 
" clip-path="url(#p5f002ac943)" style="fill: none; stroke: #000000; stroke-width: 1.5"/>
    <path d="M 256.571635 265.512636 
L 256.571635 261.724071 
" clip-path="url(#p5f002ac943)" style="fill: none; stroke: #000000; stroke-width: 1.5"/>
    <path d="M 299.494712 267.35462 
L 299.494712 266.021575 
" clip-path="url(#p5f002ac943)" style="fill: none; stroke: #000000; stroke-width: 1.5"/>
    <path d="M 342.417788 285.112177 
L 342.417788 277.230907 
" clip-path="url(#p5f002ac943)" style="fill: none; stroke: #000000; stroke-width: 1.5"/>
    <path d="M 385.340865 283.134471 
L 385.340865 272.165265 
" clip-path="url(#p5f002ac943)" style="fill: none; stroke: #000000; stroke-width: 1.5"/>
    <path d="M 428.263942 285.267698 
L 428.263942 271.575249 
" clip-path="url(#p5f002ac943)" style="fill: none; stroke: #000000; stroke-width: 1.5"/>
    <path d="M 471.187019 296.841807 
L 471.187019 294.12383 
" clip-path="url(#p5f002ac943)" style="fill: none; stroke: #000000; stroke-width: 1.5"/>
    <path d="M 514.110096 289.084132 
L 514.110096 281.089392 
" clip-path="url(#p5f002ac943)" style="fill: none; stroke: #000000; stroke-width: 1.5"/>
    <path d="M 557.033173 276.152677 
L 557.033173 268.072773 
" clip-path="url(#p5f002ac943)" style="fill: none; stroke: #000000; stroke-width: 1.5"/>
   </g>
   <g id="line2d_31">
    <path d="M 84.879327 60.455883 
L 127.802404 203.364191 
L 170.725481 249.446184 
L 213.648558 258.066008 
L 256.571635 267.760947 
L 299.494712 274.622492 
L 342.417788 282.120566 
L 385.340865 288.208265 
L 428.263942 293.955309 
L 471.187019 296.81927 
L 514.110096 298.459725 
L 557.033173 300.143912 
" clip-path="url(#p5f002ac943)" style="fill: none; stroke-dasharray: 1.5,2.475; stroke-dashoffset: 0; stroke: #880000; stroke-width: 1.5"/>
    <defs>
     <path id="m039fd5789a" d="M 0 3 
C 0.795609 3 1.55874 2.683901 2.12132 2.12132 
C 2.683901 1.55874 3 0.795609 3 0 
C 3 -0.795609 2.683901 -1.55874 2.12132 -2.12132 
C 1.55874 -2.683901 0.795609 -3 0 -3 
C -0.795609 -3 -1.55874 -2.683901 -2.12132 -2.12132 
C -2.683901 -1.55874 -3 -0.795609 -3 0 
C -3 0.795609 -2.683901 1.55874 -2.12132 2.12132 
C -1.55874 2.683901 -0.795609 3 0 3 
z
" style="stroke: #880000"/>
    </defs>
    <g clip-path="url(#p5f002ac943)">
     <use xlink:href="#m039fd5789a" x="84.879327" y="60.455883" style="fill: #880000; stroke: #880000"/>
     <use xlink:href="#m039fd5789a" x="127.802404" y="203.364191" style="fill: #880000; stroke: #880000"/>
     <use xlink:href="#m039fd5789a" x="170.725481" y="249.446184" style="fill: #880000; stroke: #880000"/>
     <use xlink:href="#m039fd5789a" x="213.648558" y="258.066008" style="fill: #880000; stroke: #880000"/>
     <use xlink:href="#m039fd5789a" x="256.571635" y="267.760947" style="fill: #880000; stroke: #880000"/>
     <use xlink:href="#m039fd5789a" x="299.494712" y="274.622492" style="fill: #880000; stroke: #880000"/>
     <use xlink:href="#m039fd5789a" x="342.417788" y="282.120566" style="fill: #880000; stroke: #880000"/>
     <use xlink:href="#m039fd5789a" x="385.340865" y="288.208265" style="fill: #880000; stroke: #880000"/>
     <use xlink:href="#m039fd5789a" x="428.263942" y="293.955309" style="fill: #880000; stroke: #880000"/>
     <use xlink:href="#m039fd5789a" x="471.187019" y="296.81927" style="fill: #880000; stroke: #880000"/>
     <use xlink:href="#m039fd5789a" x="514.110096" y="298.459725" style="fill: #880000; stroke: #880000"/>
     <use xlink:href="#m039fd5789a" x="557.033173" y="300.143912" style="fill: #880000; stroke: #880000"/>
    </g>
   </g>
   <g id="line2d_32">
    <path d="M 84.879327 75.148817 
L 127.802404 205.141527 
L 170.725481 249.449224 
L 213.648558 260.856308 
L 256.571635 269.146371 
L 299.494712 276.438432 
L 342.417788 282.80752 
L 385.340865 286.786323 
L 428.263942 294.520385 
L 471.187019 297.544899 
L 514.110096 301.099842 
L 557.033173 297.681594 
" clip-path="url(#p5f002ac943)" style="fill: none; stroke-dasharray: 1.5,2.475; stroke-dashoffset: 0; stroke: #ff0000; stroke-width: 1.5"/>
    <defs>
     <path id="mfc41525e94" d="M 0 3 
C 0.795609 3 1.55874 2.683901 2.12132 2.12132 
C 2.683901 1.55874 3 0.795609 3 0 
C 3 -0.795609 2.683901 -1.55874 2.12132 -2.12132 
C 1.55874 -2.683901 0.795609 -3 0 -3 
C -0.795609 -3 -1.55874 -2.683901 -2.12132 -2.12132 
C -2.683901 -1.55874 -3 -0.795609 -3 0 
C -3 0.795609 -2.683901 1.55874 -2.12132 2.12132 
C -1.55874 2.683901 -0.795609 3 0 3 
z
" style="stroke: #ff0000"/>
    </defs>
    <g clip-path="url(#p5f002ac943)">
     <use xlink:href="#mfc41525e94" x="84.879327" y="75.148817" style="fill: #ff0000; stroke: #ff0000"/>
     <use xlink:href="#mfc41525e94" x="127.802404" y="205.141527" style="fill: #ff0000; stroke: #ff0000"/>
     <use xlink:href="#mfc41525e94" x="170.725481" y="249.449224" style="fill: #ff0000; stroke: #ff0000"/>
     <use xlink:href="#mfc41525e94" x="213.648558" y="260.856308" style="fill: #ff0000; stroke: #ff0000"/>
     <use xlink:href="#mfc41525e94" x="256.571635" y="269.146371" style="fill: #ff0000; stroke: #ff0000"/>
     <use xlink:href="#mfc41525e94" x="299.494712" y="276.438432" style="fill: #ff0000; stroke: #ff0000"/>
     <use xlink:href="#mfc41525e94" x="342.417788" y="282.80752" style="fill: #ff0000; stroke: #ff0000"/>
     <use xlink:href="#mfc41525e94" x="385.340865" y="286.786323" style="fill: #ff0000; stroke: #ff0000"/>
     <use xlink:href="#mfc41525e94" x="428.263942" y="294.520385" style="fill: #ff0000; stroke: #ff0000"/>
     <use xlink:href="#mfc41525e94" x="471.187019" y="297.544899" style="fill: #ff0000; stroke: #ff0000"/>
     <use xlink:href="#mfc41525e94" x="514.110096" y="301.099842" style="fill: #ff0000; stroke: #ff0000"/>
     <use xlink:href="#mfc41525e94" x="557.033173" y="297.681594" style="fill: #ff0000; stroke: #ff0000"/>
    </g>
   </g>
   <g id="line2d_33">
    <path d="M 84.879327 74.051546 
L 127.802404 206.270001 
L 170.725481 250.493193 
L 213.648558 258.229088 
L 256.571635 269.1013 
L 299.494712 277.548965 
L 342.417788 285.028128 
L 385.340865 289.702172 
L 428.263942 294.94673 
L 471.187019 291.767011 
L 514.110096 298.573969 
L 557.033173 297.570578 
" clip-path="url(#p5f002ac943)" style="fill: none; stroke-dasharray: 1.5,2.475; stroke-dashoffset: 0; stroke: #000088; stroke-width: 1.5"/>
    <defs>
     <path id="meec5ce7f88" d="M -3 3 
L 3 3 
L 3 -3 
L -3 -3 
z
" style="stroke: #000088; stroke-linejoin: miter"/>
    </defs>
    <g clip-path="url(#p5f002ac943)">
     <use xlink:href="#meec5ce7f88" x="84.879327" y="74.051546" style="fill: #000088; stroke: #000088; stroke-linejoin: miter"/>
     <use xlink:href="#meec5ce7f88" x="127.802404" y="206.270001" style="fill: #000088; stroke: #000088; stroke-linejoin: miter"/>
     <use xlink:href="#meec5ce7f88" x="170.725481" y="250.493193" style="fill: #000088; stroke: #000088; stroke-linejoin: miter"/>
     <use xlink:href="#meec5ce7f88" x="213.648558" y="258.229088" style="fill: #000088; stroke: #000088; stroke-linejoin: miter"/>
     <use xlink:href="#meec5ce7f88" x="256.571635" y="269.1013" style="fill: #000088; stroke: #000088; stroke-linejoin: miter"/>
     <use xlink:href="#meec5ce7f88" x="299.494712" y="277.548965" style="fill: #000088; stroke: #000088; stroke-linejoin: miter"/>
     <use xlink:href="#meec5ce7f88" x="342.417788" y="285.028128" style="fill: #000088; stroke: #000088; stroke-linejoin: miter"/>
     <use xlink:href="#meec5ce7f88" x="385.340865" y="289.702172" style="fill: #000088; stroke: #000088; stroke-linejoin: miter"/>
     <use xlink:href="#meec5ce7f88" x="428.263942" y="294.94673" style="fill: #000088; stroke: #000088; stroke-linejoin: miter"/>
     <use xlink:href="#meec5ce7f88" x="471.187019" y="291.767011" style="fill: #000088; stroke: #000088; stroke-linejoin: miter"/>
     <use xlink:href="#meec5ce7f88" x="514.110096" y="298.573969" style="fill: #000088; stroke: #000088; stroke-linejoin: miter"/>
     <use xlink:href="#meec5ce7f88" x="557.033173" y="297.570578" style="fill: #000088; stroke: #000088; stroke-linejoin: miter"/>
    </g>
   </g>
   <g id="line2d_34">
    <path d="M 84.879327 75.024707 
L 127.802404 204.885402 
L 170.725481 250.17191 
L 213.648558 255.89384 
L 256.571635 268.209616 
L 299.494712 274.258177 
L 342.417788 283.927549 
L 385.340865 288.678306 
L 428.263942 294.077719 
L 471.187019 293.829479 
L 514.110096 299.001382 
L 557.033173 297.711805 
" clip-path="url(#p5f002ac943)" style="fill: none; stroke-dasharray: 1.5,2.475; stroke-dashoffset: 0; stroke: #0000ff; stroke-width: 1.5"/>
    <defs>
     <path id="mb86969c9c2" d="M -3 3 
L 3 3 
L 3 -3 
L -3 -3 
z
" style="stroke: #0000ff; stroke-linejoin: miter"/>
    </defs>
    <g clip-path="url(#p5f002ac943)">
     <use xlink:href="#mb86969c9c2" x="84.879327" y="75.024707" style="fill: #0000ff; stroke: #0000ff; stroke-linejoin: miter"/>
     <use xlink:href="#mb86969c9c2" x="127.802404" y="204.885402" style="fill: #0000ff; stroke: #0000ff; stroke-linejoin: miter"/>
     <use xlink:href="#mb86969c9c2" x="170.725481" y="250.17191" style="fill: #0000ff; stroke: #0000ff; stroke-linejoin: miter"/>
     <use xlink:href="#mb86969c9c2" x="213.648558" y="255.89384" style="fill: #0000ff; stroke: #0000ff; stroke-linejoin: miter"/>
     <use xlink:href="#mb86969c9c2" x="256.571635" y="268.209616" style="fill: #0000ff; stroke: #0000ff; stroke-linejoin: miter"/>
     <use xlink:href="#mb86969c9c2" x="299.494712" y="274.258177" style="fill: #0000ff; stroke: #0000ff; stroke-linejoin: miter"/>
     <use xlink:href="#mb86969c9c2" x="342.417788" y="283.927549" style="fill: #0000ff; stroke: #0000ff; stroke-linejoin: miter"/>
     <use xlink:href="#mb86969c9c2" x="385.340865" y="288.678306" style="fill: #0000ff; stroke: #0000ff; stroke-linejoin: miter"/>
     <use xlink:href="#mb86969c9c2" x="428.263942" y="294.077719" style="fill: #0000ff; stroke: #0000ff; stroke-linejoin: miter"/>
     <use xlink:href="#mb86969c9c2" x="471.187019" y="293.829479" style="fill: #0000ff; stroke: #0000ff; stroke-linejoin: miter"/>
     <use xlink:href="#mb86969c9c2" x="514.110096" y="299.001382" style="fill: #0000ff; stroke: #0000ff; stroke-linejoin: miter"/>
     <use xlink:href="#mb86969c9c2" x="557.033173" y="297.711805" style="fill: #0000ff; stroke: #0000ff; stroke-linejoin: miter"/>
    </g>
   </g>
   <g id="line2d_35">
    <path d="M 84.879327 76.414103 
L 127.802404 204.379556 
L 170.725481 244.44986 
L 213.648558 255.747524 
L 256.571635 263.204302 
L 299.494712 269.825383 
L 342.417788 277.271715 
L 385.340865 288.7303 
L 428.263942 289.546268 
L 471.187019 289.17529 
L 514.110096 289.889737 
L 557.033173 299.465571 
" clip-path="url(#p5f002ac943)" style="fill: none; stroke-dasharray: 1.5,2.475; stroke-dashoffset: 0; stroke: #008800; stroke-width: 1.5"/>
    <defs>
     <path id="m4b4740e80c" d="M 0 -3 
L -3 3 
L 3 3 
z
" style="stroke: #008800; stroke-linejoin: miter"/>
    </defs>
    <g clip-path="url(#p5f002ac943)">
     <use xlink:href="#m4b4740e80c" x="84.879327" y="76.414103" style="fill: #008800; stroke: #008800; stroke-linejoin: miter"/>
     <use xlink:href="#m4b4740e80c" x="127.802404" y="204.379556" style="fill: #008800; stroke: #008800; stroke-linejoin: miter"/>
     <use xlink:href="#m4b4740e80c" x="170.725481" y="244.44986" style="fill: #008800; stroke: #008800; stroke-linejoin: miter"/>
     <use xlink:href="#m4b4740e80c" x="213.648558" y="255.747524" style="fill: #008800; stroke: #008800; stroke-linejoin: miter"/>
     <use xlink:href="#m4b4740e80c" x="256.571635" y="263.204302" style="fill: #008800; stroke: #008800; stroke-linejoin: miter"/>
     <use xlink:href="#m4b4740e80c" x="299.494712" y="269.825383" style="fill: #008800; stroke: #008800; stroke-linejoin: miter"/>
     <use xlink:href="#m4b4740e80c" x="342.417788" y="277.271715" style="fill: #008800; stroke: #008800; stroke-linejoin: miter"/>
     <use xlink:href="#m4b4740e80c" x="385.340865" y="288.7303" style="fill: #008800; stroke: #008800; stroke-linejoin: miter"/>
     <use xlink:href="#m4b4740e80c" x="428.263942" y="289.546268" style="fill: #008800; stroke: #008800; stroke-linejoin: miter"/>
     <use xlink:href="#m4b4740e80c" x="471.187019" y="289.17529" style="fill: #008800; stroke: #008800; stroke-linejoin: miter"/>
     <use xlink:href="#m4b4740e80c" x="514.110096" y="289.889737" style="fill: #008800; stroke: #008800; stroke-linejoin: miter"/>
     <use xlink:href="#m4b4740e80c" x="557.033173" y="299.465571" style="fill: #008800; stroke: #008800; stroke-linejoin: miter"/>
    </g>
   </g>
   <g id="line2d_36">
    <path d="M 84.879327 73.723212 
L 127.802404 205.102859 
L 170.725481 236.151667 
L 213.648558 252.941705 
L 256.571635 254.86296 
L 299.494712 269.056247 
L 342.417788 268.191813 
L 385.340865 286.121744 
L 428.263942 288.769884 
L 471.187019 287.177342 
L 514.110096 288.839872 
L 557.033173 280.528204 
" clip-path="url(#p5f002ac943)" style="fill: none; stroke-dasharray: 1.5,2.475; stroke-dashoffset: 0; stroke: #00ff00; stroke-width: 1.5"/>
    <defs>
     <path id="ma5081b9536" d="M 0 -3 
L -3 3 
L 3 3 
z
" style="stroke: #00ff00; stroke-linejoin: miter"/>
    </defs>
    <g clip-path="url(#p5f002ac943)">
     <use xlink:href="#ma5081b9536" x="84.879327" y="73.723212" style="fill: #00ff00; stroke: #00ff00; stroke-linejoin: miter"/>
     <use xlink:href="#ma5081b9536" x="127.802404" y="205.102859" style="fill: #00ff00; stroke: #00ff00; stroke-linejoin: miter"/>
     <use xlink:href="#ma5081b9536" x="170.725481" y="236.151667" style="fill: #00ff00; stroke: #00ff00; stroke-linejoin: miter"/>
     <use xlink:href="#ma5081b9536" x="213.648558" y="252.941705" style="fill: #00ff00; stroke: #00ff00; stroke-linejoin: miter"/>
     <use xlink:href="#ma5081b9536" x="256.571635" y="254.86296" style="fill: #00ff00; stroke: #00ff00; stroke-linejoin: miter"/>
     <use xlink:href="#ma5081b9536" x="299.494712" y="269.056247" style="fill: #00ff00; stroke: #00ff00; stroke-linejoin: miter"/>
     <use xlink:href="#ma5081b9536" x="342.417788" y="268.191813" style="fill: #00ff00; stroke: #00ff00; stroke-linejoin: miter"/>
     <use xlink:href="#ma5081b9536" x="385.340865" y="286.121744" style="fill: #00ff00; stroke: #00ff00; stroke-linejoin: miter"/>
     <use xlink:href="#ma5081b9536" x="428.263942" y="288.769884" style="fill: #00ff00; stroke: #00ff00; stroke-linejoin: miter"/>
     <use xlink:href="#ma5081b9536" x="471.187019" y="287.177342" style="fill: #00ff00; stroke: #00ff00; stroke-linejoin: miter"/>
     <use xlink:href="#ma5081b9536" x="514.110096" y="288.839872" style="fill: #00ff00; stroke: #00ff00; stroke-linejoin: miter"/>
     <use xlink:href="#ma5081b9536" x="557.033173" y="280.528204" style="fill: #00ff00; stroke: #00ff00; stroke-linejoin: miter"/>
    </g>
   </g>
   <g id="line2d_37">
    <path d="M 84.879327 40.194679 
L 127.802404 189.284124 
L 170.725481 235.193307 
L 213.648558 259.001358 
L 256.571635 263.618353 
L 299.494712 266.688098 
L 342.417788 281.171542 
L 385.340865 277.649868 
L 428.263942 278.421473 
L 471.187019 295.482818 
L 514.110096 285.086762 
L 557.033173 272.112725 
" clip-path="url(#p5f002ac943)" style="fill: none; stroke: #000000; stroke-width: 1.5; stroke-linecap: square"/>
    <defs>
     <path id="mc13a30e1bf" d="M 0 -3 
L -0.673542 -0.927051 
L -2.85317 -0.927051 
L -1.089814 0.354102 
L -1.763356 2.427051 
L -0 1.145898 
L 1.763356 2.427051 
L 1.089814 0.354102 
L 2.85317 -0.927051 
L 0.673542 -0.927051 
z
" style="stroke: #000000; stroke-linejoin: bevel"/>
    </defs>
    <g clip-path="url(#p5f002ac943)">
     <use xlink:href="#mc13a30e1bf" x="84.879327" y="40.194679" style="stroke: #000000; stroke-linejoin: bevel"/>
     <use xlink:href="#mc13a30e1bf" x="127.802404" y="189.284124" style="stroke: #000000; stroke-linejoin: bevel"/>
     <use xlink:href="#mc13a30e1bf" x="170.725481" y="235.193307" style="stroke: #000000; stroke-linejoin: bevel"/>
     <use xlink:href="#mc13a30e1bf" x="213.648558" y="259.001358" style="stroke: #000000; stroke-linejoin: bevel"/>
     <use xlink:href="#mc13a30e1bf" x="256.571635" y="263.618353" style="stroke: #000000; stroke-linejoin: bevel"/>
     <use xlink:href="#mc13a30e1bf" x="299.494712" y="266.688098" style="stroke: #000000; stroke-linejoin: bevel"/>
     <use xlink:href="#mc13a30e1bf" x="342.417788" y="281.171542" style="stroke: #000000; stroke-linejoin: bevel"/>
     <use xlink:href="#mc13a30e1bf" x="385.340865" y="277.649868" style="stroke: #000000; stroke-linejoin: bevel"/>
     <use xlink:href="#mc13a30e1bf" x="428.263942" y="278.421473" style="stroke: #000000; stroke-linejoin: bevel"/>
     <use xlink:href="#mc13a30e1bf" x="471.187019" y="295.482818" style="stroke: #000000; stroke-linejoin: bevel"/>
     <use xlink:href="#mc13a30e1bf" x="514.110096" y="285.086762" style="stroke: #000000; stroke-linejoin: bevel"/>
     <use xlink:href="#mc13a30e1bf" x="557.033173" y="272.112725" style="stroke: #000000; stroke-linejoin: bevel"/>
    </g>
   </g>
   <g id="patch_3">
    <path d="M 41.95625 339.84 
L 41.95625 7.2 
" style="fill: none; stroke: #000000; stroke-width: 0.8; stroke-linejoin: miter; stroke-linecap: square"/>
   </g>
   <g id="patch_4">
    <path d="M 599.95625 339.84 
L 599.95625 7.2 
" style="fill: none; stroke: #000000; stroke-width: 0.8; stroke-linejoin: miter; stroke-linecap: square"/>
   </g>
   <g id="patch_5">
    <path d="M 41.95625 339.84 
L 599.95625 339.84 
" style="fill: none; stroke: #000000; stroke-width: 0.8; stroke-linejoin: miter; stroke-linecap: square"/>
   </g>
   <g id="patch_6">
    <path d="M 41.95625 7.2 
L 599.95625 7.2 
" style="fill: none; stroke: #000000; stroke-width: 0.8; stroke-linejoin: miter; stroke-linecap: square"/>
   </g>
   <g id="legend_1">
    <g id="patch_7">
     <path d="M 464.070312 117.946875 
L 592.95625 117.946875 
Q 594.95625 117.946875 594.95625 115.946875 
L 594.95625 14.2 
Q 594.95625 12.2 592.95625 12.2 
L 464.070312 12.2 
Q 462.070312 12.2 462.070312 14.2 
L 462.070312 115.946875 
Q 462.070312 117.946875 464.070312 117.946875 
z
" style="fill: #ffffff; opacity: 0.8; stroke: #cccccc; stroke-linejoin: miter"/>
    </g>
    <g id="LineCollection_8">
     <path d="M 476.070312 25.298437 
L 476.070312 15.298437 
" style="fill: none; stroke: #880000; stroke-width: 1.5"/>
    </g>
    <g id="line2d_38">
     <path d="M 466.070312 20.298437 
L 486.070312 20.298437 
" style="fill: none; stroke-dasharray: 1.5,2.475; stroke-dashoffset: 0; stroke: #880000; stroke-width: 1.5"/>
    </g>
    <g id="line2d_39">
     <g>
      <use xlink:href="#m039fd5789a" x="476.070312" y="20.298437" style="fill: #880000; stroke: #880000"/>
     </g>
    </g>
    <g id="text_18">
     <!-- Block size 4x4 -->
     <g transform="translate(494.070312 23.798437) scale(0.1 -0.1)">
      <defs>
       <path id="DejaVuSans-42" d="M 1259 2228 
L 1259 519 
L 2272 519 
Q 2781 519 3026 730 
Q 3272 941 3272 1375 
Q 3272 1813 3026 2020 
Q 2781 2228 2272 2228 
L 1259 2228 
z
M 1259 4147 
L 1259 2741 
L 2194 2741 
Q 2656 2741 2882 2914 
Q 3109 3088 3109 3444 
Q 3109 3797 2882 3972 
Q 2656 4147 2194 4147 
L 1259 4147 
z
M 628 4666 
L 2241 4666 
Q 2963 4666 3353 4366 
Q 3744 4066 3744 3513 
Q 3744 3084 3544 2831 
Q 3344 2578 2956 2516 
Q 3422 2416 3680 2098 
Q 3938 1781 3938 1306 
Q 3938 681 3513 340 
Q 3088 0 2303 0 
L 628 0 
L 628 4666 
z
" transform="scale(0.015625)"/>
       <path id="DejaVuSans-6c" d="M 603 4863 
L 1178 4863 
L 1178 0 
L 603 0 
L 603 4863 
z
" transform="scale(0.015625)"/>
       <path id="DejaVuSans-63" d="M 3122 3366 
L 3122 2828 
Q 2878 2963 2633 3030 
Q 2388 3097 2138 3097 
Q 1578 3097 1268 2742 
Q 959 2388 959 1747 
Q 959 1106 1268 751 
Q 1578 397 2138 397 
Q 2388 397 2633 464 
Q 2878 531 3122 666 
L 3122 134 
Q 2881 22 2623 -34 
Q 2366 -91 2075 -91 
Q 1284 -91 818 406 
Q 353 903 353 1747 
Q 353 2603 823 3093 
Q 1294 3584 2113 3584 
Q 2378 3584 2631 3529 
Q 2884 3475 3122 3366 
z
" transform="scale(0.015625)"/>
       <path id="DejaVuSans-6b" d="M 581 4863 
L 1159 4863 
L 1159 1991 
L 2875 3500 
L 3609 3500 
L 1753 1863 
L 3688 0 
L 2938 0 
L 1159 1709 
L 1159 0 
L 581 0 
L 581 4863 
z
" transform="scale(0.015625)"/>
       <path id="DejaVuSans-7a" d="M 353 3500 
L 3084 3500 
L 3084 2975 
L 922 459 
L 3084 459 
L 3084 0 
L 275 0 
L 275 525 
L 2438 3041 
L 353 3041 
L 353 3500 
z
" transform="scale(0.015625)"/>
       <path id="DejaVuSans-78" d="M 3513 3500 
L 2247 1797 
L 3578 0 
L 2900 0 
L 1881 1375 
L 863 0 
L 184 0 
L 1544 1831 
L 300 3500 
L 978 3500 
L 1906 2253 
L 2834 3500 
L 3513 3500 
z
" transform="scale(0.015625)"/>
      </defs>
      <use xlink:href="#DejaVuSans-42"/>
      <use xlink:href="#DejaVuSans-6c" transform="translate(68.603516 0)"/>
      <use xlink:href="#DejaVuSans-6f" transform="translate(96.386719 0)"/>
      <use xlink:href="#DejaVuSans-63" transform="translate(157.568359 0)"/>
      <use xlink:href="#DejaVuSans-6b" transform="translate(212.548828 0)"/>
      <use xlink:href="#DejaVuSans-20" transform="translate(270.458984 0)"/>
      <use xlink:href="#DejaVuSans-73" transform="translate(302.246094 0)"/>
      <use xlink:href="#DejaVuSans-69" transform="translate(354.345703 0)"/>
      <use xlink:href="#DejaVuSans-7a" transform="translate(382.128906 0)"/>
      <use xlink:href="#DejaVuSans-65" transform="translate(434.619141 0)"/>
      <use xlink:href="#DejaVuSans-20" transform="translate(496.142578 0)"/>
      <use xlink:href="#DejaVuSans-34" transform="translate(527.929688 0)"/>
      <use xlink:href="#DejaVuSans-78" transform="translate(591.552734 0)"/>
      <use xlink:href="#DejaVuSans-34" transform="translate(650.732422 0)"/>
     </g>
    </g>
    <g id="LineCollection_9">
     <path d="M 476.070312 39.976562 
L 476.070312 29.976562 
" style="fill: none; stroke: #ff0000; stroke-width: 1.5"/>
    </g>
    <g id="line2d_40">
     <path d="M 466.070312 34.976562 
L 486.070312 34.976562 
" style="fill: none; stroke-dasharray: 1.5,2.475; stroke-dashoffset: 0; stroke: #ff0000; stroke-width: 1.5"/>
    </g>
    <g id="line2d_41">
     <g>
      <use xlink:href="#mfc41525e94" x="476.070312" y="34.976562" style="fill: #ff0000; stroke: #ff0000"/>
     </g>
    </g>
    <g id="text_19">
     <!-- Block size 8x8 -->
     <g transform="translate(494.070312 38.476562) scale(0.1 -0.1)">
      <use xlink:href="#DejaVuSans-42"/>
      <use xlink:href="#DejaVuSans-6c" transform="translate(68.603516 0)"/>
      <use xlink:href="#DejaVuSans-6f" transform="translate(96.386719 0)"/>
      <use xlink:href="#DejaVuSans-63" transform="translate(157.568359 0)"/>
      <use xlink:href="#DejaVuSans-6b" transform="translate(212.548828 0)"/>
      <use xlink:href="#DejaVuSans-20" transform="translate(270.458984 0)"/>
      <use xlink:href="#DejaVuSans-73" transform="translate(302.246094 0)"/>
      <use xlink:href="#DejaVuSans-69" transform="translate(354.345703 0)"/>
      <use xlink:href="#DejaVuSans-7a" transform="translate(382.128906 0)"/>
      <use xlink:href="#DejaVuSans-65" transform="translate(434.619141 0)"/>
      <use xlink:href="#DejaVuSans-20" transform="translate(496.142578 0)"/>
      <use xlink:href="#DejaVuSans-38" transform="translate(527.929688 0)"/>
      <use xlink:href="#DejaVuSans-78" transform="translate(591.552734 0)"/>
      <use xlink:href="#DejaVuSans-38" transform="translate(650.732422 0)"/>
     </g>
    </g>
    <g id="LineCollection_10">
     <path d="M 476.070312 54.654687 
L 476.070312 44.654687 
" style="fill: none; stroke: #000088; stroke-width: 1.5"/>
    </g>
    <g id="line2d_42">
     <path d="M 466.070312 49.654687 
L 486.070312 49.654687 
" style="fill: none; stroke-dasharray: 1.5,2.475; stroke-dashoffset: 0; stroke: #000088; stroke-width: 1.5"/>
    </g>
    <g id="line2d_43">
     <g>
      <use xlink:href="#meec5ce7f88" x="476.070312" y="49.654687" style="fill: #000088; stroke: #000088; stroke-linejoin: miter"/>
     </g>
    </g>
    <g id="text_20">
     <!-- Block size 16x16 -->
     <g transform="translate(494.070312 53.154687) scale(0.1 -0.1)">
      <use xlink:href="#DejaVuSans-42"/>
      <use xlink:href="#DejaVuSans-6c" transform="translate(68.603516 0)"/>
      <use xlink:href="#DejaVuSans-6f" transform="translate(96.386719 0)"/>
      <use xlink:href="#DejaVuSans-63" transform="translate(157.568359 0)"/>
      <use xlink:href="#DejaVuSans-6b" transform="translate(212.548828 0)"/>
      <use xlink:href="#DejaVuSans-20" transform="translate(270.458984 0)"/>
      <use xlink:href="#DejaVuSans-73" transform="translate(302.246094 0)"/>
      <use xlink:href="#DejaVuSans-69" transform="translate(354.345703 0)"/>
      <use xlink:href="#DejaVuSans-7a" transform="translate(382.128906 0)"/>
      <use xlink:href="#DejaVuSans-65" transform="translate(434.619141 0)"/>
      <use xlink:href="#DejaVuSans-20" transform="translate(496.142578 0)"/>
      <use xlink:href="#DejaVuSans-31" transform="translate(527.929688 0)"/>
      <use xlink:href="#DejaVuSans-36" transform="translate(591.552734 0)"/>
      <use xlink:href="#DejaVuSans-78" transform="translate(655.175781 0)"/>
      <use xlink:href="#DejaVuSans-31" transform="translate(714.355469 0)"/>
      <use xlink:href="#DejaVuSans-36" transform="translate(777.978516 0)"/>
     </g>
    </g>
    <g id="LineCollection_11">
     <path d="M 476.070312 69.332812 
L 476.070312 59.332812 
" style="fill: none; stroke: #0000ff; stroke-width: 1.5"/>
    </g>
    <g id="line2d_44">
     <path d="M 466.070312 64.332812 
L 486.070312 64.332812 
" style="fill: none; stroke-dasharray: 1.5,2.475; stroke-dashoffset: 0; stroke: #0000ff; stroke-width: 1.5"/>
    </g>
    <g id="line2d_45">
     <g>
      <use xlink:href="#mb86969c9c2" x="476.070312" y="64.332812" style="fill: #0000ff; stroke: #0000ff; stroke-linejoin: miter"/>
     </g>
    </g>
    <g id="text_21">
     <!-- Block size 32x32 -->
     <g transform="translate(494.070312 67.832812) scale(0.1 -0.1)">
      <use xlink:href="#DejaVuSans-42"/>
      <use xlink:href="#DejaVuSans-6c" transform="translate(68.603516 0)"/>
      <use xlink:href="#DejaVuSans-6f" transform="translate(96.386719 0)"/>
      <use xlink:href="#DejaVuSans-63" transform="translate(157.568359 0)"/>
      <use xlink:href="#DejaVuSans-6b" transform="translate(212.548828 0)"/>
      <use xlink:href="#DejaVuSans-20" transform="translate(270.458984 0)"/>
      <use xlink:href="#DejaVuSans-73" transform="translate(302.246094 0)"/>
      <use xlink:href="#DejaVuSans-69" transform="translate(354.345703 0)"/>
      <use xlink:href="#DejaVuSans-7a" transform="translate(382.128906 0)"/>
      <use xlink:href="#DejaVuSans-65" transform="translate(434.619141 0)"/>
      <use xlink:href="#DejaVuSans-20" transform="translate(496.142578 0)"/>
      <use xlink:href="#DejaVuSans-33" transform="translate(527.929688 0)"/>
      <use xlink:href="#DejaVuSans-32" transform="translate(591.552734 0)"/>
      <use xlink:href="#DejaVuSans-78" transform="translate(655.175781 0)"/>
      <use xlink:href="#DejaVuSans-33" transform="translate(714.355469 0)"/>
      <use xlink:href="#DejaVuSans-32" transform="translate(777.978516 0)"/>
     </g>
    </g>
    <g id="LineCollection_12">
     <path d="M 476.070312 84.010937 
L 476.070312 74.010937 
" style="fill: none; stroke: #008800; stroke-width: 1.5"/>
    </g>
    <g id="line2d_46">
     <path d="M 466.070312 79.010937 
L 486.070312 79.010937 
" style="fill: none; stroke-dasharray: 1.5,2.475; stroke-dashoffset: 0; stroke: #008800; stroke-width: 1.5"/>
    </g>
    <g id="line2d_47">
     <g>
      <use xlink:href="#m4b4740e80c" x="476.070312" y="79.010937" style="fill: #008800; stroke: #008800; stroke-linejoin: miter"/>
     </g>
    </g>
    <g id="text_22">
     <!-- Block size 64x64 -->
     <g transform="translate(494.070312 82.510937) scale(0.1 -0.1)">
      <use xlink:href="#DejaVuSans-42"/>
      <use xlink:href="#DejaVuSans-6c" transform="translate(68.603516 0)"/>
      <use xlink:href="#DejaVuSans-6f" transform="translate(96.386719 0)"/>
      <use xlink:href="#DejaVuSans-63" transform="translate(157.568359 0)"/>
      <use xlink:href="#DejaVuSans-6b" transform="translate(212.548828 0)"/>
      <use xlink:href="#DejaVuSans-20" transform="translate(270.458984 0)"/>
      <use xlink:href="#DejaVuSans-73" transform="translate(302.246094 0)"/>
      <use xlink:href="#DejaVuSans-69" transform="translate(354.345703 0)"/>
      <use xlink:href="#DejaVuSans-7a" transform="translate(382.128906 0)"/>
      <use xlink:href="#DejaVuSans-65" transform="translate(434.619141 0)"/>
      <use xlink:href="#DejaVuSans-20" transform="translate(496.142578 0)"/>
      <use xlink:href="#DejaVuSans-36" transform="translate(527.929688 0)"/>
      <use xlink:href="#DejaVuSans-34" transform="translate(591.552734 0)"/>
      <use xlink:href="#DejaVuSans-78" transform="translate(655.175781 0)"/>
      <use xlink:href="#DejaVuSans-36" transform="translate(714.355469 0)"/>
      <use xlink:href="#DejaVuSans-34" transform="translate(777.978516 0)"/>
     </g>
    </g>
    <g id="LineCollection_13">
     <path d="M 476.070312 98.689062 
L 476.070312 88.689062 
" style="fill: none; stroke: #00ff00; stroke-width: 1.5"/>
    </g>
    <g id="line2d_48">
     <path d="M 466.070312 93.689062 
L 486.070312 93.689062 
" style="fill: none; stroke-dasharray: 1.5,2.475; stroke-dashoffset: 0; stroke: #00ff00; stroke-width: 1.5"/>
    </g>
    <g id="line2d_49">
     <g>
      <use xlink:href="#ma5081b9536" x="476.070312" y="93.689062" style="fill: #00ff00; stroke: #00ff00; stroke-linejoin: miter"/>
     </g>
    </g>
    <g id="text_23">
     <!-- Block size 128x128 -->
     <g transform="translate(494.070312 97.189062) scale(0.1 -0.1)">
      <use xlink:href="#DejaVuSans-42"/>
      <use xlink:href="#DejaVuSans-6c" transform="translate(68.603516 0)"/>
      <use xlink:href="#DejaVuSans-6f" transform="translate(96.386719 0)"/>
      <use xlink:href="#DejaVuSans-63" transform="translate(157.568359 0)"/>
      <use xlink:href="#DejaVuSans-6b" transform="translate(212.548828 0)"/>
      <use xlink:href="#DejaVuSans-20" transform="translate(270.458984 0)"/>
      <use xlink:href="#DejaVuSans-73" transform="translate(302.246094 0)"/>
      <use xlink:href="#DejaVuSans-69" transform="translate(354.345703 0)"/>
      <use xlink:href="#DejaVuSans-7a" transform="translate(382.128906 0)"/>
      <use xlink:href="#DejaVuSans-65" transform="translate(434.619141 0)"/>
      <use xlink:href="#DejaVuSans-20" transform="translate(496.142578 0)"/>
      <use xlink:href="#DejaVuSans-31" transform="translate(527.929688 0)"/>
      <use xlink:href="#DejaVuSans-32" transform="translate(591.552734 0)"/>
      <use xlink:href="#DejaVuSans-38" transform="translate(655.175781 0)"/>
      <use xlink:href="#DejaVuSans-78" transform="translate(718.798828 0)"/>
      <use xlink:href="#DejaVuSans-31" transform="translate(777.978516 0)"/>
      <use xlink:href="#DejaVuSans-32" transform="translate(841.601562 0)"/>
      <use xlink:href="#DejaVuSans-38" transform="translate(905.224609 0)"/>
     </g>
    </g>
    <g id="LineCollection_14">
     <path d="M 476.070312 113.367188 
L 476.070312 103.367188 
" style="fill: none; stroke: #000000; stroke-width: 1.5"/>
    </g>
    <g id="line2d_50">
     <path d="M 466.070312 108.367188 
L 486.070312 108.367188 
" style="fill: none; stroke: #000000; stroke-width: 1.5; stroke-linecap: square"/>
    </g>
    <g id="line2d_51">
     <g>
      <use xlink:href="#mc13a30e1bf" x="476.070312" y="108.367188" style="stroke: #000000; stroke-linejoin: bevel"/>
     </g>
    </g>
    <g id="text_24">
     <!-- No Cache Blocking -->
     <g transform="translate(494.070312 111.867188) scale(0.1 -0.1)">
      <defs>
       <path id="DejaVuSans-43" d="M 4122 4306 
L 4122 3641 
Q 3803 3938 3442 4084 
Q 3081 4231 2675 4231 
Q 1875 4231 1450 3742 
Q 1025 3253 1025 2328 
Q 1025 1406 1450 917 
Q 1875 428 2675 428 
Q 3081 428 3442 575 
Q 3803 722 4122 1019 
L 4122 359 
Q 3791 134 3420 21 
Q 3050 -91 2638 -91 
Q 1578 -91 968 557 
Q 359 1206 359 2328 
Q 359 3453 968 4101 
Q 1578 4750 2638 4750 
Q 3056 4750 3426 4639 
Q 3797 4528 4122 4306 
z
" transform="scale(0.015625)"/>
       <path id="DejaVuSans-67" d="M 2906 1791 
Q 2906 2416 2648 2759 
Q 2391 3103 1925 3103 
Q 1463 3103 1205 2759 
Q 947 2416 947 1791 
Q 947 1169 1205 825 
Q 1463 481 1925 481 
Q 2391 481 2648 825 
Q 2906 1169 2906 1791 
z
M 3481 434 
Q 3481 -459 3084 -895 
Q 2688 -1331 1869 -1331 
Q 1566 -1331 1297 -1286 
Q 1028 -1241 775 -1147 
L 775 -588 
Q 1028 -725 1275 -790 
Q 1522 -856 1778 -856 
Q 2344 -856 2625 -561 
Q 2906 -266 2906 331 
L 2906 616 
Q 2728 306 2450 153 
Q 2172 0 1784 0 
Q 1141 0 747 490 
Q 353 981 353 1791 
Q 353 2603 747 3093 
Q 1141 3584 1784 3584 
Q 2172 3584 2450 3431 
Q 2728 3278 2906 2969 
L 2906 3500 
L 3481 3500 
L 3481 434 
z
" transform="scale(0.015625)"/>
      </defs>
      <use xlink:href="#DejaVuSans-4e"/>
      <use xlink:href="#DejaVuSans-6f" transform="translate(74.804688 0)"/>
      <use xlink:href="#DejaVuSans-20" transform="translate(135.986328 0)"/>
      <use xlink:href="#DejaVuSans-43" transform="translate(167.773438 0)"/>
      <use xlink:href="#DejaVuSans-61" transform="translate(237.597656 0)"/>
      <use xlink:href="#DejaVuSans-63" transform="translate(298.876953 0)"/>
      <use xlink:href="#DejaVuSans-68" transform="translate(353.857422 0)"/>
      <use xlink:href="#DejaVuSans-65" transform="translate(417.236328 0)"/>
      <use xlink:href="#DejaVuSans-20" transform="translate(478.759766 0)"/>
      <use xlink:href="#DejaVuSans-42" transform="translate(510.546875 0)"/>
      <use xlink:href="#DejaVuSans-6c" transform="translate(579.150391 0)"/>
      <use xlink:href="#DejaVuSans-6f" transform="translate(606.933594 0)"/>
      <use xlink:href="#DejaVuSans-63" transform="translate(668.115234 0)"/>
      <use xlink:href="#DejaVuSans-6b" transform="translate(723.095703 0)"/>
      <use xlink:href="#DejaVuSans-69" transform="translate(781.005859 0)"/>
      <use xlink:href="#DejaVuSans-6e" transform="translate(808.789062 0)"/>
      <use xlink:href="#DejaVuSans-67" transform="translate(872.167969 0)"/>
     </g>
    </g>
   </g>
  </g>
 </g>
 <defs>
  <clipPath id="p5f002ac943">
   <rect x="41.95625" y="7.2" width="558" height="332.64"/>
  </clipPath>
 </defs>
</svg>
